<?xml version="1.0" encoding="utf-8"?>
<!-- Generator: Adobe Illustrator 17.0.0, SVG Export Plug-In . SVG Version: 6.00 Build 0)  -->
<!DOCTYPE svg PUBLIC "-//W3C//DTD SVG 1.1//EN" "http://www.w3.org/Graphics/SVG/1.1/DTD/svg11.dtd">
<svg version="1.1" id="Capa_1" xmlns="http://www.w3.org/2000/svg" xmlns:xlink="http://www.w3.org/1999/xlink" x="0px" y="0px"
	 width="2355px" height="948px" viewBox="0 0 2355 948" enable-background="new 0 0 2355 948" xml:space="preserve">
<g>
	<g>
		<rect x="1088.625" y="755.438" fill="#0090FF" width="44.438" height="29.625"/>
	</g>
</g>
<g>
	<g>
		<path fill="#0090FF" d="M1577.438,0H777.563C736.724,0,703.5,33.224,703.5,74.063V711c0,40.838,33.224,74.063,74.063,74.063
			h74.063v-29.625h-74.063c-24.5,0-44.438-19.938-44.438-44.438V148.125h888.75V711c0,24.5-19.938,44.438-44.438,44.438v29.625
			c40.838,0,74.063-33.224,74.063-74.063V74.063C1651.5,33.224,1618.276,0,1577.438,0z M1621.875,118.5h-888.75V74.063
			c0-24.5,19.938-44.438,44.438-44.438h799.875c24.5,0,44.438,19.938,44.438,44.438V118.5z"/>
	</g>
</g>
<g>
	<g>
		<circle fill="#0090FF" cx="777.563" cy="74.063" r="14.813"/>
	</g>
</g>
<g>
	<g>
		<circle fill="#0090FF" cx="836.813" cy="74.063" r="14.813"/>
	</g>
</g>
<g>
	<g>
		<circle fill="#0090FF" cx="896.063" cy="74.063" r="14.813"/>
	</g>
</g>
<g>
	<g>
		<path fill="#0090FF" d="M1473.75,592.5h-88.875v-59.25c0-8.176-6.636-14.813-14.813-14.813h-191.659
			c8.858-23.033,13.909-47.948,13.909-74.063c0-8.177-6.636-14.813-14.813-14.813H999.75v-177.75
			c0-8.176-6.636-14.813-14.813-14.813c-114.352,0-207.375,93.023-207.375,207.375S870.585,651.75,984.938,651.75
			c76.551,0,143.4-41.816,179.32-103.688h190.992V592.5h-118.5c-40.838,0-74.063,33.224-74.063,74.063v148.125
			c0,40.838,33.224,74.063,74.063,74.063h237c40.838,0,74.063-33.224,74.063-74.063V666.563
			C1547.813,625.724,1514.588,592.5,1473.75,592.5z M807.188,444.375c0-93.023,71.841-169.588,162.938-177.128v174.165
			l-66.923,160.627C846.233,572.399,807.188,512.912,807.188,444.375z M1146.32,518.438h-60.435
			c-6.132-17.197-22.426-29.625-41.712-29.625c-24.5,0-44.438,19.938-44.438,44.438s19.938,44.438,44.438,44.438
			c19.286,0,35.58-12.428,41.712-29.625h43.193c-32.306,44.778-84.831,74.063-144.141,74.063c-18.99,0-37.268-3.066-54.436-8.606
			l64.316-154.331h167.248C1160.318,480.206,1154.763,500.114,1146.32,518.438z M1059,533.25c0,8.162-6.651,14.813-14.813,14.813
			s-14.813-6.651-14.813-14.813s6.651-14.813,14.813-14.813S1059,525.088,1059,533.25z M1518.188,814.688
			c0,24.5-19.938,44.438-44.438,44.438h-237c-24.5,0-44.438-19.938-44.438-44.438V666.563c0-24.5,19.938-44.438,44.438-44.438h237
			c24.5,0,44.438,19.938,44.438,44.438V814.688z"/>
	</g>
</g>
<g>
	<g>
		<path fill="#0090FF" d="M1251.563,177.75c-3.925,0-7.703,1.555-10.472,4.34l-53.547,53.547
			c-37.283-35.757-87.734-57.887-143.355-57.887c-8.177,0-14.813,6.636-14.813,14.813v192.563c0,8.177,6.636,14.813,14.813,14.813
			h192.563c8.177,0,14.813-6.636,14.813-14.813c0-48.067-16.59-92.267-44.141-127.476l50.274-50.274h67.93V177.75H1251.563z
			 M1221.315,370.313H1059V207.997c41.579,3.451,79.054,21.374,107.613,48.57l-29.21,29.21l20.945,20.945l27.966-27.966
			C1205.822,304.738,1218.486,336.125,1221.315,370.313z"/>
	</g>
</g>
<g>
	<g>
		<rect x="1355.25" y="177.75" fill="#0090FF" width="237" height="29.625"/>
	</g>
</g>
<g>
	<g>
		<rect x="1355.25" y="237" fill="#0090FF" width="237" height="29.625"/>
	</g>
</g>
<g>
	<g>
		<rect x="1355.25" y="296.25" fill="#0090FF" width="237" height="29.625"/>
	</g>
</g>
<g>
	<g>
		<path fill="#0090FF" d="M1059,918.375V770.25c0-8.176-6.636-14.813-14.813-14.813h-59.25V711c0-8.176-6.636-14.813-14.813-14.813
			h-74.063c-8.177,0-14.813,6.636-14.813,14.813v118.5H822c-8.177,0-14.813,6.636-14.813,14.813v74.063h-74.063V948H822h74.063
			h74.063h74.063h74.063v-29.625H1059z M881.25,918.375h-44.438v-59.25h44.438V918.375z M955.313,770.25v148.125h-44.438v-74.063
			v-118.5h44.438V770.25z M1029.375,918.375h-44.438V785.063h44.438V918.375z"/>
	</g>
</g>
<g>
	<g>
		<path fill="#0090FF" d="M1459.708,676.679l-34.247,102.769l-72.3-120.514c-2.859-4.77-7.999-7.54-13.702-7.154
			c-5.555,0.37-10.413,3.822-12.605,8.947l-35.817,83.587l-28.973-28.973c-3.51-3.511-8.547-5.021-13.45-4.029
			c-4.873,0.992-8.932,4.385-10.784,9.006l-29.625,74.063l27.492,11.006l21.286-53.206l28.559,28.559
			c3.481,3.481,8.443,5.007,13.272,4.073c4.829-0.918,8.887-4.192,10.813-8.71l33.032-77.069l73.974,123.284
			c2.681,4.488,7.51,7.184,12.679,7.184c0.533,0,1.081-0.03,1.615-0.089c5.747-0.622,10.606-4.562,12.443-10.043l44.438-133.313
			L1459.708,676.679z"/>
	</g>
</g>
<g>
	<g>
		<path fill="#0090FF" d="M1577.438,385.125h-148.125c-8.177,0-14.813,6.636-14.813,14.813v118.5
			c0,8.176,6.636,14.813,14.813,14.813h148.125c8.177,0,14.813-6.636,14.813-14.813v-118.5
			C1592.25,391.761,1585.614,385.125,1577.438,385.125z M1535.207,414.75l-31.832,25.477l-31.847-25.477H1535.207z
			 M1444.125,430.747l35.55,28.44l-35.55,28.44V430.747z M1471.528,503.625l31.847-25.478l31.847,25.478H1471.528z
			 M1562.625,487.613l-35.55-28.425l35.55-28.44V487.613z"/>
	</g>
</g>
</svg>
