<?xml version="1.0" encoding="utf-8"?>
<!-- Generator: Adobe Illustrator 17.0.0, SVG Export Plug-In . SVG Version: 6.00 Build 0)  -->
<!DOCTYPE svg PUBLIC "-//W3C//DTD SVG 1.1//EN" "http://www.w3.org/Graphics/SVG/1.1/DTD/svg11.dtd">
<svg version="1.1" id="Calque_1" xmlns="http://www.w3.org/2000/svg" xmlns:xlink="http://www.w3.org/1999/xlink" x="0px" y="0px"
	 width="480px" height="480px" viewBox="0 0 480 480" enable-background="new 0 0 480 480" xml:space="preserve">
<path fill="#0090FF" d="M127.997,104.007V72.007c0-4.418-3.582-8-8-8H8c-4.418,0-8,3.582-8,8v31.999H127.997z"/>
<path fill="#0090FF" d="M0,120.006v263.995h127.997V120.006H0z M95.998,224.004H31.999c-4.418,0-8-3.582-8-8v-63.999
	c0-4.418,3.582-8,8-8h63.999c4.418,0,8,3.582,8,8v63.999C103.998,220.422,100.416,224.004,95.998,224.004z"/>
<path fill="#0090FF" d="M0,432v39.999c0,4.418,3.582,8,8,8h111.998c4.418,0,8-3.582,8-8V432H0z"/>
<path fill="#0090FF" d="M0,400.001h127.997v16H0V400.001z"/>
<path fill="#0090FF" d="M143.997,400.001h103.998v16H143.997V400.001z"/>
<path fill="#0090FF" d="M247.995,32.008v-24c0-4.418-3.582-8-8-8h-87.998c-4.418,0-8,3.582-8,8v24H247.995z"/>
<path fill="#0090FF" d="M143.997,88.007h103.998v295.994H143.997V88.007z"/>
<path fill="#0090FF" d="M143.997,432v39.999c0,4.418,3.582,8,8,8h87.998c4.418,0,8-3.582,8-8V432H143.997z"/>
<path fill="#0090FF" d="M143.997,48.008h103.998v24H143.997V48.008z"/>
<path fill="#0090FF" d="M263.803,165.669l4.281,16.433l135.482-36.128l-4.285-16.433L263.803,165.669z"/>
<path fill="#0090FF" d="M330.657,421.946l135.478-36.128l-8.578-32.886L322.072,389.06L330.657,421.946z"/>
<path fill="#0090FF" d="M453.518,337.451l-45.909-175.996l-135.486,36.128l45.909,175.997L453.518,337.451z"/>
<path fill="#0090FF" d="M259.764,150.189l135.474-36.124l-11.484-44.058c-1.184-4.266-5.543-6.816-9.84-5.758L253.917,96.249
	c-4.238,1.16-6.765,5.5-5.683,9.758L259.764,150.189z"/>
<path fill="#0090FF" d="M470.174,401.298l-135.486,36.128l9.543,36.573c0.555,2.062,1.906,3.82,3.762,4.883
	c1.207,0.73,2.59,1.117,4,1.117c0.699,0,1.398-0.082,2.078-0.238l119.998-31.999c4.238-1.16,6.765-5.504,5.683-9.762
	L470.174,401.298z"/>
</svg>
