<?xml version="1.0" encoding="utf-8"?>
<!-- Generator: Adobe Illustrator 17.0.0, SVG Export Plug-In . SVG Version: 6.00 Build 0)  -->
<!DOCTYPE svg PUBLIC "-//W3C//DTD SVG 1.1//EN" "http://www.w3.org/Graphics/SVG/1.1/DTD/svg11.dtd">
<svg version="1.1" id="Calque_1" xmlns="http://www.w3.org/2000/svg" xmlns:xlink="http://www.w3.org/1999/xlink" x="0px" y="0px"
	 width="512px" height="512px" viewBox="0 0 512 512" enable-background="new 0 0 512 512" xml:space="preserve">
<path fill="#0090FF" d="M376,216h-64c-4.426,0-8-3.574-8-8s3.574-8,8-8h64c4.426,0,8,3.574,8,8S380.426,216,376,216z"/>
<path fill="#0090FF" d="M408,192H280c-4.426,0-8-3.574-8-8s3.574-8,8-8h128c4.426,0,8,3.574,8,8S412.426,192,408,192z"/>
<path fill="#0090FF" d="M383.594,143.594c-2.051,0-4.098-0.785-5.656-2.348l-28.281-28.277c-3.129-3.129-3.129-8.184,0-11.313
	s8.184-3.129,11.313,0l28.277,28.281c3.129,3.125,3.129,8.184,0,11.309C387.688,142.816,385.641,143.594,383.594,143.594z"/>
<path fill="#0090FF" d="M344,88c-4.426,0-8-3.574-8-8V40c0-4.426,3.574-8,8-8s8,3.574,8,8v40C352,84.426,348.426,88,344,88z"/>
<path fill="#0090FF" d="M344,120c-13.23,0-24-10.77-24-24s10.77-24,24-24s24,10.77,24,24S357.23,120,344,120z M344,88
	c-4.414,0-8,3.586-8,8s3.586,8,8,8s8-3.586,8-8S348.414,88,344,88z"/>
<path fill="#0090FF" d="M344,160c-35.289,0-64-28.711-64-64s28.711-64,64-64s64,28.711,64,64S379.289,160,344,160z M344,48
	c-26.473,0-48,21.527-48,48s21.527,48,48,48s48-21.527,48-48S370.473,48,344,48z"/>
<path fill="#0090FF" d="M504,256H184c-4.426,0-8-3.574-8-8v-48c0-4.426,3.574-8,8-8s8,3.574,8,8v40h304V16H192v152
	c0,4.426-3.574,8-8,8s-8-3.574-8-8V8c0-4.426,3.574-8,8-8h320c4.426,0,8,3.574,8,8v240C512,252.426,508.426,256,504,256z"/>
<path fill="#0090FF" d="M40,256c-4.426,0-8-3.574-8-8v-40c0-4.426,3.574-8,8-8s8,3.574,8,8v40C48,252.426,44.426,256,40,256z"/>
<path fill="#0090FF" d="M72,176.016H40c-4.426,0-8-3.574-8-8c0-4.422,3.574-8,8-8h32c4.426,0,8,3.578,8,8
	C80,172.441,76.426,176.016,72,176.016z"/>
<path fill="#0090FF" d="M8,208c-4.426,0-8-3.574-8-8c0-22.055,17.945-40,40-40c4.426,0,8,3.574,8,8s-3.574,8-8,8
	c-13.23,0-24,10.77-24,24C16,204.426,12.426,208,8,208z"/>
<path fill="#0090FF" d="M8,256c-4.426,0-8-3.574-8-8v-48c0-4.426,3.574-8,8-8s8,3.574,8,8v48C16,252.426,12.426,256,8,256z"/>
<path fill="#0090FF" d="M152,256c-4.426,0-8-3.574-8-8v-48c0-4.426,3.574-8,8-8s8,3.574,8,8v48C160,252.426,156.426,256,152,256z"/>
<path fill="#0090FF" d="M192,208h-40c-4.426,0-8-3.574-8-8s3.574-8,8-8h40c4.426,0,8,3.574,8,8S196.426,208,192,208z"/>
<path fill="#0090FF" d="M248,152c-4.426,0-8-3.574-8-8c0-4.414-3.586-8-8-8s-8,3.586-8,8c0,4.426-3.574,8-8,8s-8-3.574-8-8
	c0-13.23,10.77-24,24-24s24,10.77,24,24C256,148.426,252.426,152,248,152z"/>
<path fill="#0090FF" d="M192,208c-4.426,0-8-3.574-8-8s3.574-8,8-8c26.473,0,48-21.527,48-48c0-4.426,3.574-8,8-8s8,3.574,8,8
	C256,179.289,227.289,208,192,208z"/>
<path fill="#0090FF" d="M192,176c-4.426,0-8-3.574-8-8s3.574-8,8-8c8.824,0,16-7.176,16-16c0-4.426,3.574-8,8-8s8,3.574,8,8
	C224,161.648,209.648,176,192,176z"/>
<path fill="#0090FF" d="M488.016,344.008c-4.422,0-8-3.574-8-8c0-8.832-7.184-16.008-16.016-16.008c-4.426,0-8-3.574-8-8
	s3.574-8,8-8c17.656,0,32.016,14.359,32.016,32.008C496.016,340.434,492.441,344.008,488.016,344.008z"/>
<path fill="#0090FF" d="M464,320c-4.426,0-8-3.574-8-8v-24c0-4.426,3.574-8,8-8s8,3.574,8,8v24C472,316.426,468.426,320,464,320z"/>
<path fill="#0090FF" d="M376,344c-4.426,0-8-3.574-8-8c0-30.871,25.129-56,56-56c4.426,0,8,3.574,8,8s-3.574,8-8,8
	c-22.055,0-40,17.945-40,40C384,340.426,380.426,344,376,344z"/>
<path fill="#0090FF" d="M464,296h-40c-4.426,0-8-3.574-8-8s3.574-8,8-8h40c4.426,0,8,3.574,8,8S468.426,296,464,296z"/>
<path fill="#0090FF" d="M432,416c-44.434,0-62.414-34.938-63.16-36.426c-1.977-3.949-0.375-8.758,3.574-10.734
	c3.945-1.953,8.738-0.383,10.723,3.543C383.734,373.543,397.703,400,432,400c34.656,0,48.703-27.305,48.84-27.574
	c1.984-3.953,6.777-5.539,10.734-3.578c3.953,1.977,5.555,6.785,3.578,10.738C494.414,381.063,476.434,416,432,416z"/>
<path fill="#0090FF" d="M376,384c-4.426,0-8-3.574-8-8v-40.031c0-4.426,3.574-8,8-8s8,3.574,8,8V376
	C384,380.426,380.426,384,376,384z"/>
<path fill="#0090FF" d="M488,384c-4.426,0-8-3.574-8-8v-40.031c0-4.426,3.574-8,8-8s8,3.574,8,8V376
	C496,380.426,492.426,384,488,384z"/>
<path fill="#0090FF" d="M360,487.961c-4.426,0-8-3.578-8-8c0-17.641,14.352-31.992,32-31.992c4.426,0,8,3.574,8,8
	c0,4.422-3.574,8-8,8c-8.824,0-16,7.168-16,15.992C368,484.383,364.426,487.961,360,487.961z"/>
<path fill="#0090FF" d="M408,464.016h-24c-4.426,0-8-3.574-8-8c0-4.422,3.574-8,8-8h24c4.426,0,8,3.578,8,8
	C416,460.441,412.426,464.016,408,464.016z"/>
<path fill="#0090FF" d="M360,512c-4.426,0-8-3.574-8-8v-24.039c0-4.426,3.574-8,8-8s8,3.574,8,8V504
	C368,508.426,364.426,512,360,512z"/>
<path fill="#0090FF" d="M504,487.961c-4.426,0-8-3.578-8-8c0-8.824-7.176-15.992-16-15.992c-4.426,0-8-3.578-8-8
	c0-4.426,3.574-8,8-8c17.648,0,32,14.352,32,31.992C512,484.383,508.426,487.961,504,487.961z"/>
<path fill="#0090FF" d="M480,464.016h-24c-4.426,0-8-3.574-8-8c0-4.422,3.574-8,8-8h24c4.426,0,8,3.578,8,8
	C488,460.441,484.426,464.016,480,464.016z"/>
<path fill="#0090FF" d="M504,512c-4.426,0-8-3.574-8-8v-24.039c0-4.426,3.574-8,8-8s8,3.574,8,8V504
	C512,508.426,508.426,512,504,512z"/>
<path fill="#0090FF" d="M504,512H360c-4.426,0-8-3.574-8-8s3.574-8,8-8h144c4.426,0,8,3.574,8,8S508.426,512,504,512z"/>
<path fill="#0090FF" d="M408,464.016c-4.426,0-8-3.574-8-8v-29.473c0-4.422,3.574-8,8-8s8,3.578,8,8v29.473
	C416,460.441,412.426,464.016,408,464.016z"/>
<path fill="#0090FF" d="M456,463.961c-4.426,0-8-3.578-8-8v-29.418c0-4.422,3.574-8,8-8s8,3.578,8,8v29.418
	C464,460.383,460.426,463.961,456,463.961z"/>
<path fill="#0090FF" d="M432,439.938c-35.289,0-64-28.707-64-63.977c0-4.426,3.574-8,8-8s8,3.574,8,8
	c0,26.453,21.527,47.977,48,47.977s48-21.523,48-47.977c0-4.426,3.574-8,8-8s8,3.574,8,8C496,411.23,467.289,439.938,432,439.938z"
	/>
<path fill="#0090FF" d="M456,463.961h-48c-4.426,0-8-3.578-8-8c0-4.426,3.574-8,8-8h48c4.426,0,8,3.574,8,8
	C464,460.383,460.426,463.961,456,463.961z"/>
<path fill="#0090FF" d="M80,416c-44.434,0-62.414-34.938-63.16-36.426c-1.977-3.949-0.375-8.758,3.574-10.734
	c3.938-1.953,8.738-0.383,10.723,3.543C31.734,373.543,45.703,400,80,400c34.656,0,48.703-27.305,48.84-27.574
	c1.977-3.953,6.785-5.539,10.734-3.578c3.953,1.977,5.555,6.785,3.578,10.738C142.414,381.063,124.434,416,80,416z"/>
<path fill="#0090FF" d="M24,384c-4.426,0-8-3.574-8-8v-32.031c0-4.426,3.574-8,8-8s8,3.574,8,8V376C32,380.426,28.426,384,24,384z"
	/>
<path fill="#0090FF" d="M136,384c-4.426,0-8-3.574-8-8v-32.031c0-4.426,3.574-8,8-8s8,3.574,8,8V376
	C144,380.426,140.426,384,136,384z"/>
<path fill="#0090FF" d="M8,487.961c-4.426,0-8-3.578-8-8c0-17.641,14.352-31.992,32-31.992c4.426,0,8,3.574,8,8c0,4.422-3.574,8-8,8
	c-8.824,0-16,7.168-16,15.992C16,484.383,12.426,487.961,8,487.961z"/>
<path fill="#0090FF" d="M56,464.016H32c-4.426,0-8-3.574-8-8c0-4.422,3.574-8,8-8h24c4.426,0,8,3.578,8,8
	C64,460.441,60.426,464.016,56,464.016z"/>
<path fill="#0090FF" d="M8,512c-4.426,0-8-3.574-8-8v-24.039c0-4.426,3.574-8,8-8s8,3.574,8,8V504C16,508.426,12.426,512,8,512z"/>
<path fill="#0090FF" d="M152,487.961c-4.426,0-8-3.578-8-8c0-8.824-7.176-15.992-16-15.992c-4.426,0-8-3.578-8-8
	c0-4.426,3.574-8,8-8c17.648,0,32,14.352,32,31.992C160,484.383,156.426,487.961,152,487.961z"/>
<path fill="#0090FF" d="M128,464.016h-24c-4.426,0-8-3.574-8-8c0-4.422,3.574-8,8-8h24c4.426,0,8,3.578,8,8
	C136,460.441,132.426,464.016,128,464.016z"/>
<path fill="#0090FF" d="M152,512c-4.426,0-8-3.574-8-8v-24.039c0-4.426,3.574-8,8-8s8,3.574,8,8V504
	C160,508.426,156.426,512,152,512z"/>
<path fill="#0090FF" d="M152,512H8c-4.426,0-8-3.574-8-8s3.574-8,8-8h144c4.426,0,8,3.574,8,8S156.426,512,152,512z"/>
<path fill="#0090FF" d="M56,464.016c-4.426,0-8-3.574-8-8v-29.473c0-4.422,3.574-8,8-8s8,3.578,8,8v29.473
	C64,460.441,60.426,464.016,56,464.016z"/>
<path fill="#0090FF" d="M104,463.961c-4.426,0-8-3.578-8-8v-29.418c0-4.422,3.574-8,8-8s8,3.578,8,8v29.418
	C112,460.383,108.426,463.961,104,463.961z"/>
<path fill="#0090FF" d="M80,439.938c-35.289,0-64-28.707-64-63.977c0-4.426,3.574-8,8-8s8,3.574,8,8
	c0,26.453,21.527,47.977,48,47.977s48-21.523,48-47.977c0-4.426,3.574-8,8-8s8,3.574,8,8C144,411.23,115.289,439.938,80,439.938z"/>
<path fill="#0090FF" d="M136,351.969c-4.426,0-8-3.578-8-8C128,317.512,106.473,296,80,296s-48,21.512-48,47.969
	c0,4.422-3.574,8-8,8s-8-3.578-8-8C16,308.695,44.711,280,80,280s64,28.695,64,63.969C144,348.391,140.426,351.969,136,351.969z"/>
<path fill="#0090FF" d="M104,463.961H56c-4.426,0-8-3.578-8-8c0-4.426,3.574-8,8-8h48c4.426,0,8,3.574,8,8
	C112,460.383,108.426,463.961,104,463.961z"/>
<path fill="#0090FF" d="M328,440c-4.426,0-8-3.574-8-8v-79.664c0-4.426,3.574-8,8-8s8,3.574,8,8V432
	C336,436.426,332.426,440,328,440z"/>
<path fill="#0090FF" d="M328,440H184c-4.426,0-8-3.574-8-8s3.574-8,8-8h144c4.426,0,8,3.574,8,8S332.426,440,328,440z"/>
<path fill="#0090FF" d="M184,440c-4.426,0-8-3.574-8-8v-79.664c0-4.426,3.574-8,8-8s8,3.574,8,8V432
	C192,436.426,188.426,440,184,440z"/>
<path fill="#0090FF" d="M328,360.336c-4.426,0-8-3.574-8-8c0-35.289-28.711-64-64-64s-64,28.711-64,64c0,4.426-3.574,8-8,8
	s-8-3.574-8-8c0-44.113,35.887-80,80-80s80,35.887,80,80C336,356.762,332.426,360.336,328,360.336z"/>
<path fill="#0090FF" d="M184,487.961c-4.426,0-8-3.578-8-8c0-17.641,14.352-31.992,32-31.992c4.426,0,8,3.574,8,8
	c0,4.422-3.574,8-8,8c-8.824,0-16,7.168-16,15.992C192,484.383,188.426,487.961,184,487.961z"/>
<path fill="#0090FF" d="M232,464.016h-24c-4.426,0-8-3.574-8-8c0-4.422,3.574-8,8-8h24c4.426,0,8,3.578,8,8
	C240,460.441,236.426,464.016,232,464.016z"/>
<path fill="#0090FF" d="M184,512c-4.426,0-8-3.574-8-8v-24.039c0-4.426,3.574-8,8-8s8,3.574,8,8V504
	C192,508.426,188.426,512,184,512z"/>
<path fill="#0090FF" d="M328,487.961c-4.426,0-8-3.578-8-8c0-8.824-7.176-15.992-16-15.992c-4.426,0-8-3.578-8-8
	c0-4.426,3.574-8,8-8c17.648,0,32,14.352,32,31.992C336,484.383,332.426,487.961,328,487.961z"/>
<path fill="#0090FF" d="M304,464.016h-24c-4.426,0-8-3.574-8-8c0-4.422,3.574-8,8-8h24c4.426,0,8,3.578,8,8
	C312,460.441,308.426,464.016,304,464.016z"/>
<path fill="#0090FF" d="M328,512c-4.426,0-8-3.574-8-8v-24.039c0-4.426,3.574-8,8-8s8,3.574,8,8V504
	C336,508.426,332.426,512,328,512z"/>
<path fill="#0090FF" d="M328,512H184c-4.426,0-8-3.574-8-8s3.574-8,8-8h144c4.426,0,8,3.574,8,8S332.426,512,328,512z"/>
<path fill="#0090FF" d="M232,464.016c-4.426,0-8-3.574-8-8v-13.473c0-4.422,3.574-8,8-8s8,3.578,8,8v13.473
	C240,460.441,236.426,464.016,232,464.016z"/>
<path fill="#0090FF" d="M280,463.961c-4.426,0-8-3.578-8-8v-13.418c0-4.422,3.574-8,8-8s8,3.578,8,8v13.418
	C288,460.383,284.426,463.961,280,463.961z"/>
<path fill="#0090FF" d="M256,471.961c-0.832,0-1.688-0.137-2.527-0.418l-24-8c-4.184-1.391-6.457-5.918-5.059-10.117
	c1.402-4.188,5.883-6.473,10.121-5.059l24,8c4.184,1.395,6.457,5.922,5.059,10.121C262.473,469.84,259.352,471.961,256,471.961z"/>
<path fill="#0090FF" d="M256,471.961c-3.352,0-6.473-2.121-7.586-5.473c-1.398-4.191,0.867-8.727,5.059-10.121l24-8
	c4.23-1.414,8.719,0.863,10.121,5.059c1.398,4.191-0.867,8.727-5.059,10.117l-24,8C257.688,471.832,256.832,471.961,256,471.961z"/>
<path fill="#0090FF" d="M40,104c-4.426,0-8-3.574-8-8V73.055c0-4.422,3.574-8,8-8s8,3.578,8,8V96C48,100.426,44.426,104,40,104z"/>
<path fill="#0090FF" d="M152,104c-4.426,0-8-3.574-8-8V67.992c0-4.426,3.574-8,8-8s8,3.574,8,8V96C160,100.426,156.426,104,152,104z
	"/>
<path fill="#0090FF" d="M152,75.992c-4.426,0-8-3.578-8-8C144,39.32,120.672,16,91.992,16C63.32,16,40,39.32,40,67.992
	c0,4.422-3.574,8-8,8s-8-3.578-8-8C24,30.504,54.504,0,91.992,0C129.496,0,160,30.504,160,67.992
	C160,72.414,156.426,75.992,152,75.992z"/>
<path fill="#0090FF" d="M152.008,86.961c-2.406,0-4.785-1.082-6.359-3.137c-15.449-20.176-19.641-18.512-35.313-12.305
	C95.32,77.48,72.609,86.48,30.754,79.855c-4.363-0.688-7.348-4.777-6.648-9.145c0.688-4.359,4.758-7.367,9.152-6.648
	c37.527,5.906,56.988-1.781,71.191-7.414c19.285-7.648,32.215-10.871,53.902,17.449c2.688,3.504,2.023,8.527-1.488,11.215
	C155.414,86.426,153.703,86.961,152.008,86.961z"/>
<path fill="#0090FF" d="M119.992,67.809c-1.176,0-2.383-0.266-3.52-0.824c-3.961-1.945-5.594-6.746-3.648-10.703l16-32.57
	c1.938-3.969,6.711-5.605,10.711-3.656c3.961,1.945,5.594,6.746,3.648,10.707l-16,32.566
	C125.793,66.168,122.945,67.809,119.992,67.809z"/>
<path fill="#0090FF" d="M192,176l-72.008-0.039c-4.418,0-7.992-3.586-7.992-8.008c0-4.418,3.586-7.992,8-7.992h0.008l72,0.039
	c4.418,0,7.992,3.586,7.992,8.008C200,172.426,196.414,176,192,176z"/>
<path fill="#0090FF" d="M72,176.016c-4.426,0-8-3.574-8-8v-21.473c0-4.422,3.574-8,8-8s8,3.578,8,8v21.473
	C80,172.441,76.426,176.016,72,176.016z"/>
<path fill="#0090FF" d="M120,175.961c-4.426,0-8-3.578-8-8v-21.418c0-4.422,3.574-8,8-8s8,3.578,8,8v21.418
	C128,172.383,124.426,175.961,120,175.961z"/>
<path fill="#0090FF" d="M96,159.938c-35.289,0-64-28.707-64-63.977c0-4.426,3.574-8,8-8s8,3.574,8,8
	c0,26.453,21.527,47.977,48,47.977s48-21.523,48-47.977c0-4.426,3.574-8,8-8s8,3.574,8,8C160,131.23,131.289,159.938,96,159.938z"/>
<path fill="#0090FF" d="M80.008,183.961c-2.938,0-5.762-1.617-7.168-4.426c-1.977-3.949-0.375-8.758,3.574-10.734l16-8
	c3.953-1.961,8.762-0.375,10.738,3.574c1.977,3.953,0.375,8.762-3.578,10.738l-16,8C82.434,183.688,81.207,183.961,80.008,183.961z"
	/>
<path fill="#0090FF" d="M112,183.961c-2.047,0-4.098-0.785-5.656-2.344c-3.129-3.129-3.129-8.184,0-11.313l8-8
	c3.129-3.129,8.184-3.129,11.313,0s3.129,8.184,0,11.313l-8,8C116.098,183.176,114.047,183.961,112,183.961z"/>
<path fill="#0090FF" d="M80,183.961c-2.047,0-4.098-0.785-5.656-2.344l-8-8c-3.129-3.129-3.129-8.184,0-11.313s8.184-3.129,11.313,0
	l8,8c3.129,3.129,3.129,8.184,0,11.313C84.098,183.176,82.047,183.961,80,183.961z"/>
<path fill="#0090FF" d="M111.992,183.961c-1.199,0-2.426-0.273-3.566-0.84l-16-8c-3.953-1.977-5.555-6.785-3.578-10.738
	c1.984-3.949,6.793-5.535,10.738-3.574l16,8c3.949,1.977,5.551,6.785,3.574,10.734C117.754,182.344,114.93,183.961,111.992,183.961z
	"/>
<path fill="#0090FF" d="M32,79.961c-4.426,0-8-3.578-8-8v-3.969c0-4.426,3.574-8,8-8s8,3.574,8,8v3.969
	C40,76.383,36.426,79.961,32,79.961z"/>
</svg>
