<?xml version="1.0" encoding="utf-8"?>
<!-- Generator: Adobe Illustrator 17.0.0, SVG Export Plug-In . SVG Version: 6.00 Build 0)  -->
<!DOCTYPE svg PUBLIC "-//W3C//DTD SVG 1.1//EN" "http://www.w3.org/Graphics/SVG/1.1/DTD/svg11.dtd">
<svg version="1.1" id="Calque_1" xmlns="http://www.w3.org/2000/svg" xmlns:xlink="http://www.w3.org/1999/xlink" x="0px" y="0px"
	 width="960px" height="560px" viewBox="0 0 960 560" style="enable-background:new 0 0 960 560;" xml:space="preserve">
<rect x="10.86" y="12.63" style="opacity:0.2;" width="973.09" height="547.37"/>
<rect x="-3" y="0.3" style="fill:#FFFFFF;" width="973.09" height="547.37"/>
<path style="fill:#64D0FF;" d="M970.09,0.3v502.75c-49.08,16.63-98.76,23.53-143.13,24.45c-59.63,1.24-109.68-8.3-135.83-19.52
	c-47.79-20.5-60.8-45.91-114.83-54.35c-7.01-1.09-13.77-1.76-20.3-2.09c-35.54-1.8-64.11,6.29-86.94,8.73
	c-17.02,1.82-30.85,0.5-42.02-10.37c-16.71-16.28-19-45.74-13.64-65.52c10.6-39.1,53.69-49.73,69.17-93.98
	c2.03-5.79,6.46-18.92,4.75-35.91c-1.19-11.74-4.87-21-7.8-26.93c0,0-0.45-0.77-0.94-1.49c-14.74-21.66-55.08-33.34-55.08-33.34
	c-36.97-10.7-72.33-20.94-83.48-45.69c-3.18-7.05-11.83-28.01-1.26-65.63c18.84-67.13-74.28-81.1-74.28-81.1H970.09z"/>
<path style="fill:#30B1F9;" d="M970.09,0.3v502.75c-30.52,13.68-88.46,24.36-150.19,24.54c-40.41,0.12-74.49-5.52-118.88-29.65
	c-37.98-20.65-56.04-47.63-103.84-55.17c-22.09-3.48-41.18-2.04-41.18-2.04c-36.93,1.75-65.32,11.84-86.94,8.52
	c-7.93-1.22-14.94-4.23-21.14-10.13c-16.71-15.89-19-44.65-13.64-63.95c10.6-38.16,53.69-48.54,69.17-91.73
	c2.03-5.65,6.46-18.46,4.75-35.05c-1.19-11.46-4.87-20.49-7.8-26.29c0,0-0.45-0.75-0.94-1.46c-14.74-21.14-55.08-32.54-55.08-32.54
	c-36.97-10.45-72.33-20.44-83.48-44.59c-3.18-6.88-11.83-27.34-1.26-64.06C378.48,13.94,285.36,0.3,285.36,0.3H970.09z"/>
</svg>
