<?xml version="1.0" encoding="utf-8"?>
<!-- Generator: Adobe Illustrator 17.0.0, SVG Export Plug-In . SVG Version: 6.00 Build 0)  -->
<!DOCTYPE svg PUBLIC "-//W3C//DTD SVG 1.1//EN" "http://www.w3.org/Graphics/SVG/1.1/DTD/svg11.dtd">
<svg version="1.1" id="_x2018_ëîé_x5F_1" xmlns="http://www.w3.org/2000/svg" xmlns:xlink="http://www.w3.org/1999/xlink"
	 x="0px" y="0px" width="3200px" height="2000px" viewBox="0 0 3200 2000" style="enable-background:new 0 0 3200 2000;"
	 xml:space="preserve">
<path style="opacity:0.5;fill:#DCEAFF;" d="M3084.2,1840.18v0.01c-0.24,0.44-0.48,0.86-0.73,1.29c-1.73,3.1-3.52,6.24-5.34,9.4
	l-2796.51-0.85c0,0-2.72-3.04-7.59-8.85c-0.28-0.33-0.56-0.66-0.85-1.02c-12.49-14.99-37.63-46.55-67.06-91.05
	c0-0.01-0.01-0.02-0.02-0.05c-78.09-118.11-186.3-327.28-168.09-559.43c5.14-65.53,20.34-132.89,49.14-200.56
	C174.5,783.85,435.12,645.51,669.9,642.73c90.87-1.09,177.88,18.15,249.47,61.68c12.7,7.71,28.66,13.68,47.23,17.73
	c15.65,3.43,33.14,5.51,52.14,6.18c152.48,5.37,400.46-80.56,547.55-296.74c78.1-114.8,198.01-189.95,335.82-229.09
	c6.42-1.81,12.89-3.57,19.38-5.22c31.34-8.04,63.53-14.28,96.3-18.74c5.9-0.8,11.83-1.55,17.76-2.22
	c145.43-16.88,301.19,0.58,444.05,48.83c18.82,6.35,37.41,13.24,55.73,20.66c268.85,108.88,478.02,331.2,459.63,641.62
	c-0.73,12.27-1.8,24.69-3.27,37.24c-2.74,23.91-6.84,48.31-12.33,73.19c-3.24,14.67-6.95,29.5-11.19,44.5
	C2857.37,1435.86,3300.36,1453.63,3084.2,1840.18z"/>
<g>
	<path style="fill:#DFEBFA;" d="M3084.2,1840.18v0.01l-2176.72,0.23l18.77-650.54v-176.76h81.42V875.09h162.42v117.17h49.6v-216.7
		h10.79v-15.15h1.93v15.15h39.18v-15.15h1.95v15.15h55.45v-15.15h1.95v15.15h34.91v-15.15h1.92v15.15h14.34v202.29h54.83v-32.72
		l64.66,0.29v-53.02h13v-10.48h1.73v10.48h49.93v0.02h9.99v-10.51h1.72v10.51h12.04v105.42h76.97v38.8h42.79v-22.53h39.69v-89.44
		h19.79v-41.73h2.99v41.73h47.42v-78.21h4.66v78.21h31.38v-1.09h-0.05v-9.93h0.05v-9.4h-0.05v-15.63h0.05v-9.98h-0.05v-15.64h0.05
		v-9.98h-0.05V837.4h0.05v-10.79h-0.05v-15.62h0.05v-13.74h-0.05v-15.62h0.05v-10.36h9.35v-11.69h1.5v11.69h69.26v-11.69h1.49v11.69
		h12.65v81.77l8.89,0.05v-0.05h-0.07V837.4h0.07v-10.79h-0.07v-15.62h0.07v-10.75h-0.07V784.6h0.07v-0.05h83.99v0.05h14.44
		c0.74,0.41,1.5,0.83,2.25,1.25v104.27h15.45v-15.03h177.28v117.17h54.14v-216.7h11.77v-15.15h2.13v15.15h42.74v-15.15h2.12v15.15
		h60.54v-15.15h2.12v15.15h38.1v-15.15h2.1v15.15h15.66v202.29h59.83v-32.72l70.56,0.29V892.4h14.21v-10.5h1.89v10.5h54.47v0.01
		h10.91v-10.51h1.87v10.51h13.14v105.43h84v38.79h46.71v-22.53h43.31v-89.46h21.6v-41.72h3.26v41.72h51.77v-78.2h5.08v78.2h25.45
		c-2.74,23.91-6.84,48.31-12.33,73.19c-3.24,14.67-6.95,29.5-11.19,44.5C2857.37,1435.86,3300.36,1453.63,3084.2,1840.18z"/>
</g>
<path style="fill:#AFCDFB;" d="M2535.33,245.79v1594.38h-55.73V225.12C2498.42,231.47,2517.01,238.36,2535.33,245.79z"/>
<path style="fill:#CEE1FD;" d="M966.6,722.13v1119.05H274.03c-0.28-0.33-0.56-0.66-0.85-1.02c-12.49-14.99-37.63-46.55-67.06-91.05
	c0-0.01-0.01-0.02-0.02-0.05c-78.09-118.11-186.3-327.28-168.09-559.43c5.14-65.53,20.34-132.89,49.14-200.56
	C174.5,783.85,435.12,645.51,669.9,642.73c90.02,0.99,175.83,20.42,247.09,61.68C930.32,712.12,947.09,718.08,966.6,722.13z"/>
<g>
	<path style="fill:#9FC1F4;" d="M2035.55,176.29v196.35c0,15.31-3.74,27.8-8.29,27.8h-1.19c-4.56,0-8.28-12.49-8.28-27.8V178.52
		C2023.69,177.72,2029.61,176.97,2035.55,176.29z"/>
	<path style="fill:#FF9843;" d="M2022.04,353.2c-64.71,0-117.17,55.47-117.17,123.89h234.34
		C2139.21,408.67,2086.75,353.2,2022.04,353.2z"/>
	<path style="fill:#FFC48A;" d="M2031.37,354.71c-3.37-0.73-6.8-1.12-10.29-1.12c-42.16,0-76.34,55.29-76.34,123.5h20.58
		C1965.32,414.53,1994.08,362.84,2031.37,354.71z"/>
</g>
<g>
	<g>
		<path style="fill:#77A4E5;" d="M2793.69,1657.43c0,0-31.18-36.38-1.92-59.49c0,0,21.37-12.94,38.8-11.89
			c0,0-24.69,41.41-16.7,45.53c7.99,4.12,24.19-48.12,24.19-48.12s48.63-4.72,64.28,2.81c0,0-41.58,34.02-32.82,36.05
			c8.76,2.03,53.67-31.37,53.67-31.37s45.27,7.7,42.85,35.32c-2.41,27.61-18.01,36.14-24.87,35.41
			c-6.86-0.73-46.96-16.04-47.83-10.43c-0.87,5.62,23.27,23.97,40.17,24.83c0,0-31.91,35.19-53.12,25.04
			c-21.21-10.16-23.02-26.26-36.24-32.3c-13.22-6.04-24.51-6.02-19.05,0.13c5.46,6.16,29.39,12.15,36.95,25.52
			c7.56,13.37,14.34,22.39-7.6,19.09c-21.94-3.3-57.61-19.36-59.18-37.75C2793.69,1657.43,2793.69,1657.43,2793.69,1657.43z"/>
		<g>
			<path style="fill:#77A4E5;" d="M2943.78,1627.01c0,0-122.95-4.74-150.1,30.42c0,0-6,17.98-24.48,34.36l-2.88,7.85
				c0,0,21.3-22.46,28.93-23.82C2795.25,1675.82,2783.33,1632.26,2943.78,1627.01z"/>
			<path style="fill:#77A4E5;" d="M2769.21,1691.79c0,0-26.39,19.52-28.22,54.39l4.79,0.43c0,0,8.43-36.06,23.66-50.16
				C2784.67,1682.35,2769.21,1691.79,2769.21,1691.79z"/>
		</g>
	</g>
	<g>
		<path style="fill:#77A4E5;" d="M2684.67,1611.68c0,0,49.6-27.78,26.45-65.47c0,0-18.52-23.15-38.36-29.1c0,0,10.58,56.22,0,57.54
			c-10.58,1.32-7.27-63.49-7.27-63.49s-52.25-25.13-72.75-23.15c0,0,32.41,54.89,21.83,53.57c-10.58-1.32-46.96-56.88-46.96-56.88
			s-53.57-9.92-62.17,21.83c-8.6,31.74,5.29,47.62,13.23,49.6c7.94,1.98,58.86,1.32,57.54,7.94c-1.32,6.61-35.71,17.2-54.89,11.24
			c0,0,21.16,52.25,48.94,49.6c27.78-2.65,36.38-19.84,53.57-21.16c17.2-1.32,29.76,3.31,21.16,7.94
			c-8.6,4.63-37.7,1.52-51.59,13.32c-13.89,11.81-25.13,19.08,0.66,24.37c25.79,5.29,72.09,1.98,81.35-17.86
			C2684.67,1611.68,2684.67,1611.68,2684.67,1611.68z"/>
		<g>
			<path style="fill:#77A4E5;" d="M2529.91,1516.45c0,0,138.89,44.97,154.76,95.24c0,0-0.66,22.49,13.23,48.28v9.92
				c0,0-14.55-33.73-22.49-38.36C2675.41,1631.52,2706.49,1587.87,2529.91,1516.45z"/>
			<path style="fill:#77A4E5;" d="M2697.89,1659.96c0,0,21.42,32.53,9.21,72.12l-5.51-1.48c0,0,5.35-43.61-5.86-65.54
				C2684.53,1643.13,2697.89,1659.96,2697.89,1659.96z"/>
		</g>
	</g>
	<g>
		<path style="fill:#9FC1F4;" d="M2763.58,1573.38c0,0-65.39-36.62-34.87-86.31c0,0,24.41-30.51,50.56-38.36c0,0-13.95,74.1,0,75.85
			c13.95,1.74,9.59-83.69,9.59-83.69s68.87-33.13,95.9-30.51c0,0-42.72,72.36-28.77,70.62c13.95-1.74,61.9-74.97,61.9-74.97
			s70.62-13.08,81.95,28.77c11.33,41.85-6.97,62.77-17.44,65.38c-10.46,2.62-77.59,1.74-75.85,10.46
			c1.74,8.72,47.08,22.67,72.36,14.82c0,0-27.9,68.87-64.51,65.39c-36.62-3.49-47.95-26.15-70.62-27.9
			c-22.67-1.74-39.23,4.36-27.9,10.46c11.33,6.1,49.69,2,68,17.56c18.31,15.56,33.13,25.15-0.87,32.13
			c-34,6.97-95.03,2.62-107.23-23.54C2763.58,1573.38,2763.58,1573.38,2763.58,1573.38z"/>
		<g>
			<path style="fill:#9FC1F4;" d="M2967.58,1447.84c0,0-183.08,59.28-204,125.54c0,0,0.87,29.64-17.44,63.64v13.08
				c0,0,19.18-44.46,29.64-50.56C2775.78,1599.53,2734.81,1541.99,2967.58,1447.84z"/>
			<path style="fill:#9FC1F4;" d="M2746.14,1637.02c0,0-28.23,42.87-12.14,95.06l7.26-1.95c0,0-7.05-57.48,7.72-86.39
				C2763.76,1614.82,2746.14,1637.02,2746.14,1637.02z"/>
		</g>
	</g>
	<path style="fill:#9FC1F4;" d="M2761.37,1845.26c70.74,0,128.08-57.34,128.08-128.08H2633.3
		C2633.3,1787.91,2690.64,1845.26,2761.37,1845.26z"/>
	<path style="fill:#AFCDFB;" d="M2792.89,1844.28c-5.21,0.65-10.52,0.98-15.91,0.98c-70.73,0-128.07-57.34-128.07-128.08h31.82
		C2680.72,1782.53,2729.66,1836.44,2792.89,1844.28z"/>
	<rect x="2629.08" y="1717.18" style="fill:#9FC1F4;" width="263.28" height="3.93"/>
</g>
<g>
	<g>
		<path style="fill:#77A4E5;" d="M2165.12,1838.96l-125.86-522.37l8.79-20.56l124.68,542.87c0.32,1.39-0.74,2.72-2.16,2.72h-2.08
			C2166.89,1841.62,2165.49,1840.52,2165.12,1838.96z"/>
	</g>
	<g>
		<g>
			<path style="fill:#77A4E5;" d="M1597.12,1841.62L1597.12,1841.62c-2.59,0-4.55-2.32-4.13-4.87l37.07-224.68h15.88l-44.2,225.76
				C1601.3,1840.03,1599.37,1841.62,1597.12,1841.62z"/>
		</g>
		<g>
			<path style="fill:#77A4E5;" d="M1952.71,1841.62L1952.71,1841.62c-2.59,0-4.55-2.32-4.13-4.87l37.07-224.68h15.88l-44.2,225.76
				C1956.89,1840.03,1954.96,1841.62,1952.71,1841.62z"/>
		</g>
		<polygon style="fill:#F5FBFF;" points="2038.93,1612.54 1596.23,1612.54 1687.95,1037.54 2130.65,1037.54 		"/>
		<rect x="1563.62" y="1608.15" style="fill:#77A4E5;" width="508.43" height="16.92"/>
		<g>
			<path style="fill:#BDD1F9;" d="M1863.27,1157.85c-0.34,4.55-1.01,9.02-1.98,13.38c-9.23,41.09-45.82,72.58-87.17,72.65
				c-45.75,0.08-80-38.31-76.51-85.75c3.49-47.44,43.41-85.95,89.16-86.03c9.59-0.02,18.67,1.66,27.01,4.76
				c3.75,1.39,7.36,3.07,10.79,5c7.41,4.2,14,9.62,19.56,16.02c3.1,3.56,5.87,7.44,8.29,11.56c1.41,2.39,2.69,4.87,3.84,7.43
				c3.22,7.11,5.44,14.83,6.51,22.99c0.54,4.08,0.78,8.29,0.73,12.57C1863.48,1154.22,1863.4,1156.03,1863.27,1157.85z"/>
			<path style="fill:#FFFFFF;" d="M1856.26,1116.88l-75.82,41.11c0,0,31.28-55.09,44.12-76.13c7.41,4.2,14,9.62,19.56,16.02
				c3.1,3.56,5.87,7.44,8.29,11.56C1853.83,1111.84,1855.11,1114.32,1856.26,1116.88z"/>
			<path style="fill:#F99746;" d="M1864.14,1106.48l-69.25,37.55c0,0,28.58-50.32,40.3-69.53c6.76,3.84,12.78,8.79,17.86,14.63
				c2.83,3.25,5.36,6.79,7.58,10.56C1861.91,1101.88,1863.09,1104.14,1864.14,1106.48z"/>
		</g>
		<g>
			<g>
				<path style="fill:#BDD1F9;" d="M2003.68,1568.83l-364.38-0.03l36.89-210.24l364.38,0.03L2003.68,1568.83z M1642.25,1566.69
					l359.23,0.03l36.15-206.01l-359.24-0.03L1642.25,1566.69z"/>
			</g>
			<g>
				<path style="fill:#F99746;" d="M1981.95,1540l-323.16-0.02c0,0,57.32-30.74,73.05-29.13c15.73,1.61,38.32,14.06,52.86,14.54
					c14.53,0.48,30.27-43.15,46.45-41.09c16.18,2.06,22.26,40.65,30.64,36.88c8.38-3.77,33.53-5.4,48.01,0
					c14.48,5.41,35.59-17.18,48.33-16.47C1970.87,1505.42,1981.95,1540,1981.95,1540z"/>
				<g>
					<polygon style="fill:#F99746;" points="1736.5,1478.21 1674.77,1478.21 1675.35,1474.93 1737.07,1474.94 					"/>
					<polygon style="fill:#F99746;" points="1735.27,1485.2 1673.55,1485.2 1674.12,1481.92 1735.84,1481.93 					"/>
				</g>
			</g>
			<g>
				<path style="fill:#BDD1F9;" d="M1677.28,1434.59l323.16,0.02c0,0-46.53-30.75-62.83-29.14c-16.29,1.61-43.26,14.05-57.96,14.53
					c-14.7,0.48-15.13-43.15-32.03-41.1c-16.9,2.06-36.53,40.65-43.58,36.88c-7.05-3.77-31.63-5.41-48.01,0
					c-16.38,5.4-29.57-17.18-42.55-16.48C1700.5,1400.01,1677.28,1434.59,1677.28,1434.59z"/>
				<g>
					<polygon style="fill:#BDD1F9;" points="1753.93,1378.83 1692.21,1378.83 1692.79,1375.56 1754.51,1375.56 					"/>
					<polygon style="fill:#BDD1F9;" points="1752.71,1385.83 1690.98,1385.82 1691.56,1382.55 1753.28,1382.55 					"/>
				</g>
			</g>
		</g>
		<g>
			<polygon style="fill:#BDD1F9;" points="1698.23,1329.24 1684.06,1329.24 1696.38,1262.82 1710.55,1262.82 			"/>
			<polygon style="fill:#BDD1F9;" points="1717.54,1329.24 1703.37,1329.24 1712.91,1277.79 1727.08,1277.79 			"/>
			<polygon style="fill:#BDD1F9;" points="1736.85,1329.24 1722.68,1329.24 1732.63,1275.59 1746.8,1275.59 			"/>
			<polygon style="fill:#BDD1F9;" points="1756.16,1329.24 1741.98,1329.24 1749.55,1288.43 1763.73,1288.43 			"/>
			<polygon style="fill:#BDD1F9;" points="1775.47,1329.24 1761.29,1329.24 1769.41,1285.46 1783.59,1285.46 			"/>
			<polygon style="fill:#BDD1F9;" points="1794.78,1329.24 1780.6,1329.24 1786.9,1295.29 1801.07,1295.29 			"/>
		</g>
		<g>
			<polygon style="fill:#F99746;" points="1887.84,1329.24 1873.67,1329.24 1885.99,1262.82 1900.16,1262.82 			"/>
			<polygon style="fill:#F99746;" points="1907.15,1329.24 1892.98,1329.24 1902.52,1277.79 1916.69,1277.79 			"/>
			<polygon style="fill:#F99746;" points="1926.46,1329.24 1912.29,1329.24 1922.24,1275.59 1936.41,1275.59 			"/>
			<polygon style="fill:#F99746;" points="1945.77,1329.24 1931.6,1329.24 1939.16,1288.43 1953.34,1288.43 			"/>
			<polygon style="fill:#F99746;" points="1965.08,1329.24 1950.9,1329.24 1959.02,1285.46 1973.2,1285.46 			"/>
			<polygon style="fill:#F99746;" points="1984.39,1329.24 1970.21,1329.24 1976.51,1295.29 1990.68,1295.29 			"/>
		</g>
		<g>
			<g>
				<polygon style="fill:#BDD1F9;" points="1956.09,1112.43 1909.95,1112.43 1911.13,1106.11 1957.27,1106.11 				"/>
				<polygon style="fill:#BDD1F9;" points="2012.69,1112.43 1961.74,1112.43 1962.93,1106.11 2013.88,1106.11 				"/>
				<polygon style="fill:#BDD1F9;" points="2049,1112.43 2016.52,1112.43 2017.71,1106.11 2050.19,1106.11 				"/>
				<polygon style="fill:#BDD1F9;" points="2079.32,1112.43 2054.26,1112.43 2055.45,1106.11 2080.51,1106.11 				"/>
			</g>
			<g>
				<polygon style="fill:#BDD1F9;" points="1951.02,1139.39 1904.88,1139.39 1906.07,1133.07 1952.21,1133.07 				"/>
				<polygon style="fill:#BDD1F9;" points="2007.62,1139.39 1956.68,1139.39 1957.86,1133.07 2008.81,1133.07 				"/>
				<polygon style="fill:#BDD1F9;" points="2043.94,1139.39 2011.46,1139.39 2012.64,1133.07 2045.12,1133.07 				"/>
				<polygon style="fill:#BDD1F9;" points="2074.26,1139.39 2049.2,1139.39 2050.38,1133.07 2075.45,1133.07 				"/>
			</g>
			<g>
				<polygon style="fill:#BDD1F9;" points="1983.51,1097.68 1912.72,1097.68 1913.9,1091.36 1984.69,1091.36 				"/>
				<polygon style="fill:#BDD1F9;" points="2031.06,1097.68 1990.25,1097.68 1991.44,1091.36 2032.24,1091.36 				"/>
				<polygon style="fill:#BDD1F9;" points="2082.13,1097.68 2036.81,1097.68 2038,1091.36 2083.31,1091.36 				"/>
			</g>
			<g>
				<polygon style="fill:#BDD1F9;" points="1978.12,1126.35 1907.33,1126.35 1908.52,1120.03 1979.31,1120.03 				"/>
				<polygon style="fill:#BDD1F9;" points="2025.67,1126.35 1984.86,1126.35 1986.05,1120.03 2026.86,1120.03 				"/>
				<polygon style="fill:#BDD1F9;" points="2076.74,1126.35 2031.43,1126.35 2032.61,1120.03 2077.93,1120.03 				"/>
			</g>
			<g>
				<polygon style="fill:#BDD1F9;" points="1945.96,1166.36 1899.82,1166.36 1901.01,1160.04 1947.15,1160.04 				"/>
				<polygon style="fill:#BDD1F9;" points="2002.56,1166.36 1951.61,1166.36 1952.8,1160.04 2003.75,1160.04 				"/>
				<polygon style="fill:#BDD1F9;" points="2038.87,1166.36 2006.39,1166.36 2007.58,1160.04 2040.06,1160.04 				"/>
				<polygon style="fill:#BDD1F9;" points="2069.2,1166.36 2044.13,1166.36 2045.32,1160.04 2070.38,1160.04 				"/>
			</g>
			<g>
				<polygon style="fill:#BDD1F9;" points="1973.06,1153.32 1902.27,1153.32 1903.45,1147 1974.24,1147 				"/>
				<polygon style="fill:#BDD1F9;" points="2020.61,1153.32 1979.8,1153.32 1980.99,1147 2021.79,1147 				"/>
				<polygon style="fill:#BDD1F9;" points="2071.68,1153.32 2026.36,1153.32 2027.55,1147 2072.87,1147 				"/>
			</g>
			<g>
				<polygon style="fill:#BDD1F9;" points="1941.21,1191.64 1895.07,1191.64 1896.26,1185.32 1942.4,1185.32 				"/>
				<polygon style="fill:#BDD1F9;" points="1997.81,1191.64 1946.87,1191.64 1948.05,1185.32 1999,1185.32 				"/>
				<polygon style="fill:#BDD1F9;" points="2034.12,1191.64 2001.64,1191.64 2002.83,1185.32 2035.31,1185.32 				"/>
				<polygon style="fill:#BDD1F9;" points="2064.45,1191.64 2039.38,1191.64 2040.57,1185.32 2065.64,1185.32 				"/>
			</g>
			<g>
				<polygon style="fill:#BDD1F9;" points="1968.31,1178.6 1897.52,1178.6 1898.71,1172.28 1969.5,1172.28 				"/>
				<polygon style="fill:#BDD1F9;" points="2015.86,1178.6 1975.05,1178.6 1976.24,1172.28 2017.05,1172.28 				"/>
				<polygon style="fill:#BDD1F9;" points="2066.93,1178.6 2021.61,1178.6 2022.8,1172.28 2068.12,1172.28 				"/>
			</g>
		</g>
		<g>
			<polygon style="fill:#BDD1F9;" points="1836.21,1272.7 1813.62,1272.7 1814.21,1269.61 1836.79,1269.61 			"/>
			<polygon style="fill:#BDD1F9;" points="1863.91,1272.7 1838.98,1272.7 1839.56,1269.61 1864.49,1269.61 			"/>
			<polygon style="fill:#BDD1F9;" points="1833.73,1285.9 1811.15,1285.9 1811.73,1282.81 1834.31,1282.81 			"/>
			<polygon style="fill:#BDD1F9;" points="1861.43,1285.9 1836.5,1285.9 1837.08,1282.81 1862.02,1282.81 			"/>
			<polygon style="fill:#BDD1F9;" points="1849.63,1265.48 1814.98,1265.48 1815.56,1262.39 1850.21,1262.39 			"/>
			<polygon style="fill:#BDD1F9;" points="1872.9,1265.48 1852.93,1265.48 1853.51,1262.39 1873.48,1262.39 			"/>
			<polygon style="fill:#BDD1F9;" points="1846.99,1279.52 1812.34,1279.52 1812.92,1276.43 1847.57,1276.43 			"/>
			<polygon style="fill:#BDD1F9;" points="1870.27,1279.52 1850.29,1279.52 1850.88,1276.43 1870.85,1276.43 			"/>
		</g>
		<g>
			<polygon style="fill:#BDD1F9;" points="2017.12,1272.7 1994.53,1272.7 1995.12,1269.61 2017.7,1269.61 			"/>
			<polygon style="fill:#BDD1F9;" points="2044.82,1272.7 2019.89,1272.7 2020.47,1269.61 2045.41,1269.61 			"/>
			<polygon style="fill:#BDD1F9;" points="2014.64,1285.9 1992.06,1285.9 1992.64,1282.81 2015.22,1282.81 			"/>
			<polygon style="fill:#BDD1F9;" points="2042.35,1285.9 2017.41,1285.9 2017.99,1282.81 2042.93,1282.81 			"/>
			<polygon style="fill:#BDD1F9;" points="2030.54,1265.48 1995.89,1265.48 1996.47,1262.39 2031.12,1262.39 			"/>
			<polygon style="fill:#BDD1F9;" points="2053.81,1265.48 2033.84,1265.48 2034.42,1262.39 2054.39,1262.39 			"/>
			<polygon style="fill:#BDD1F9;" points="2027.9,1279.52 1993.25,1279.52 1993.84,1276.43 2028.49,1276.43 			"/>
			<polygon style="fill:#BDD1F9;" points="2051.18,1279.52 2031.21,1279.52 2031.79,1276.43 2051.76,1276.43 			"/>
		</g>
	</g>
</g>
<g>
	<g>
		<path style="fill:#FFB27D;" d="M2137.27,1833.1c-0.79,10.81-16.04,10.92-33.35,8.92c-17.31-2.01-12.7,2.37-36.93,2.71
			c-24.23,0.34-32.58-7.67-33.75-11.13c-1.05-3.07,10.62-5.66,23.11-8.7c1.57-0.38,3.15-0.77,4.72-1.17
			c14.08-3.58,23.4-14.11,35.44-23.31c11.41-8.71,26.12-40.25,26.12-40.25l33.1-1.49c0,0-13.94,28.27-19.17,40.46
			c-3.08,7.17-1.77,15.98-0.43,22.74C2136.84,1825.53,2137.56,1829.29,2137.27,1833.1z"/>
		<path style="fill:#233862;" d="M2103.93,1842.01c-17.31-2.01-12.7,2.37-36.93,2.71c-24.23,0.34-32.58-7.67-33.75-11.13
			c-1.05-3.07,10.62-5.66,23.11-8.7l0.15,0.23c0,0,15.6,8.37,35.55,6.37c16.26-1.63,32.86-8.42,44.08-9.63
			c0.72,3.68,1.43,7.44,1.15,11.24C2136.48,1843.9,2121.23,1844.02,2103.93,1842.01z"/>
	</g>
	<g>
		<path style="fill:#FFB27D;" d="M2365.87,1835.34c-0.78,10.81-16.03,10.94-33.34,8.95c-17.31-1.99-12.7,2.38-36.93,2.75
			c-24.23,0.36-32.59-7.64-33.76-11.1c-1.05-3.07,10.62-5.67,23.1-8.72c1.57-0.38,3.14-0.78,4.72-1.18
			c14.07-3.59,23.38-14.14,35.42-23.35c11.4-8.73,0.01-60.38,0.01-60.38l36.41-3.54c0,0-1.75,43.49-1.72,63.27
			c0.01,7.8,3.6,15.31,4.95,22.06C2365.43,1827.77,2366.15,1831.53,2365.87,1835.34z"/>
		<path style="fill:#233862;" d="M2332.53,1844.29c-17.31-1.99-12.7,2.38-36.93,2.75c-24.23,0.36-32.59-7.64-33.76-11.1
			c-1.05-3.07,10.62-5.67,23.1-8.72l0.15,0.23c0,0,15.61,8.36,35.56,6.33c16.26-1.65,32.85-8.45,44.07-9.68
			c0.72,3.68,1.44,7.43,1.16,11.24C2365.08,1846.15,2349.83,1846.28,2332.53,1844.29z"/>
	</g>
	<path style="fill:#A9453D;" d="M2259.62,942.51c-6.27-25.78,2.82-37.78,11.01-44.17c3.89-9.49,8.32-16.33,12.86-18.9
		c8.27-4.7,18.19-5.22,25.12-4.81c-1.79-1.84-5.3-2.51-5.3-2.51c4.3-0.64,13.9,3.63,13.9,3.63c59.82-23.05,69.22,65.03,67.97,85.49
		c-1.25,20.46-1.08,44.56,30.04,60.68c59.38,30.76-19.74,146.69-19.74,146.69c1.51-16.54-74.79-103.8-114.6-129.94
		c-9.69-14.27-13.13-39.47-13.39-41.45c1.67,19.98,5.09,31.19,8.15,37.5C2257.51,1018.03,2254.82,977.93,2259.62,942.51z"/>
	<path style="fill:#FFB27D;" d="M2283.25,1039.98c-0.2,0.09,19.22,10.17,33.83,6.18c13.74-3.75,22.72-21.56,22.53-21.6
		c-5.82-1.16-7.5-9.15-7.37-43.51l-2.63,0.52l-44.23,8.76c0,0,1.01,13.92,1.04,27.03
		C2286.44,1028.36,2285.77,1038.8,2283.25,1039.98z"/>
	<path style="fill:#ED975D;" d="M2285.38,990.32c0,0,1.01,13.92,1.04,27.03c24.75-0.7,37.83-23.28,43.19-35.79L2285.38,990.32z"/>
	<path style="fill:#2A4E96;" d="M2105.42,1777.68c-2.17,6.8,2.71,13.8,9.83,14.14l17.28,0.81l18.28,0.56
		c4.57,0.14,8.94-1.85,11.83-5.4c14.59-17.9,59.51-77.57,86.76-164.26c0.77-2.43,1.57-4.89,2.43-7.38
		c17.99-52.47,55.3-118.33,74.96-177.94c3.13-9.5,5.94-18.43,8.46-26.89c0.81-2.71,1.59-5.37,2.34-7.99
		c14.49-50.34,18.68-83.39,22.55-118.7l-141.95,1.14C2218.19,1285.75,2188.31,1518.03,2105.42,1777.68z"/>
	<path style="fill:#FFFFFF;" d="M2238.07,1204.18c0.36,67.55-9.91,96.53-9.91,96.53s60.78,30.88,133.02,8.15
		c0.85-0.27,51.68-14.66,51.68-14.66c-1.21-2.73-11.25-47.93-12.43-50.44c-15.25-32.75-19.41-46.5-21.22-56.57
		c-3.36-18.8-3.43-38.25-1.76-56.59c4.41-48.56,17.52-88.87,17.52-88.87c-19.68-4.48-38.11-12.35-58.6-20.03
		c-4.71,5.87-19.12,12.01-31.61,11.73c-14.39-0.32-19.06-6.48-18.31-13.2c-15.33,8.53-27.57,16.59-27.57,16.59
		c-13.03,22.64-39.46,44.62-41.38,79.35C2217.03,1124.69,2238.06,1202.29,2238.07,1204.18z"/>
	<path style="fill:#5F9AA8;" d="M2360.15,1211.71c6.21,8.78,18.1,62.16,47.7,68.87c-15.25-38.04-26.83-54.73-28.64-66.42
		c-3.36-21.83-3.43-44.43-1.76-65.74c-9.91-17.37-17.3-29.27-17.3-29.27c-0.78-2.81-15.75-49.09-20.54-7.72
		C2334.82,1152.81,2353.22,1201.89,2360.15,1211.71z"/>
	<path style="fill:#FFB27D;" d="M2277.11,1002.73c0,0,58.56,0.97,58.6-35.51c0.04-36.48,7.63-60.92-29.76-63.08
		c-37.39-2.16-44.67,11.75-47.64,23.92C2255.33,940.24,2261.88,1001.54,2277.11,1002.73z"/>
	<path style="fill:#A9453D;" d="M2279.28,903.25c0,0,16.03,42.79,40.64,49.12c24.61,6.33,35.28-0.27,35.28-0.27
		s-18.87-14.99-22.79-41.17C2332.4,910.94,2291.37,882.88,2279.28,903.25z"/>
	<path style="fill:#A9453D;" d="M2283.25,906.73c0,0-11.97,9.55-14.89,18.84c-2.92,9.29-4.23,28.41-9.81,27.76
		c0,0-12.08-29.09,1.49-45.54C2274.44,890.34,2283.25,906.73,2283.25,906.73z"/>
	<polygon style="fill:#FFB27D;" points="2184.97,1251.07 2157.31,1335.39 2173.09,1341.71 2218.82,1267.22 	"/>
	<path style="fill:#F99746;" d="M2259.54,1031.84c0,0-32.61,12.94-42.05,33.12c-9.44,20.18-23.73,155.51-29.42,169.41
		c-5.69,13.9-9.97,24.9-9.97,24.9s16.44,13.85,32.98,14.87C2227.61,1275.16,2259.54,1031.84,2259.54,1031.84z"/>
	<path style="fill:#F99746;" d="M2286.44,1020.22c0,0-33.88,83.7-34.88,100.63c-1,16.94-3.99,276.99-3.99,276.99
		s1.99,11.96-20.92,6.97c-22.92-4.98-28.89-9.96-28.89-9.96s21.92-160.42,15.94-216.21c-5.98-55.8,45.83-146.8,45.83-146.8
		L2286.44,1020.22z"/>
	<path style="fill:#1E3D70;" d="M2132.54,1792.62l19.85,0.61c3.55,0.11,6.95-1.42,9.21-4.16c13.34-16.16,59.88-76.64,87.82-165.56
		c0.77-2.43,1.57-4.89,2.43-7.38c17.99-52.47,55.3-118.33,74.96-177.94c3.13-9.5,5.94-18.43,8.46-26.89
		c0.81-2.71,1.59-5.37,2.34-7.99l-20.9-15.86c0,0-62.76,101.63-82.19,197.27C2217.63,1667.8,2150.03,1767.76,2132.54,1792.62z"/>
	<path style="fill:#2A4E96;" d="M2314.51,1593.63c-0.34,44,1.75,142.07,7.1,190.01c0.49,4.39,4.2,7.7,8.62,7.7h14.81
		c6.24,0,10.91-0.05,14.02-0.09c2.68-0.04,4.98-1.97,5.49-4.6c14.73-74.95,25.27-137.22,32.99-191.03
		c6.46-45.04,12.2-83.65,16.61-116.88c4.44-33.45,7.53-61.46,8.64-85.12c0.17-3.73,0.3-7.35,0.37-10.87
		c0.07-3.54,0.09-6.97,0.06-10.31l-122.65-11.96C2302.11,1441.97,2314.71,1566.59,2314.51,1593.63z"/>
	<path style="fill:#1E3D70;" d="M2345.04,1791.34c5.61,0,9.95-0.04,13.02-0.08c3.26-0.04,6.05-2.38,6.68-5.58
		c14.63-74.52,25.11-136.49,32.8-190.06c6.46-45.04,12.2-83.65,16.61-116.88c4.44-33.45,7.53-61.46,8.64-85.12l-45.01,26.47
		c0,0,28.73,10.13,17.77,86.85S2360.3,1780.48,2345.04,1791.34z"/>
	<path style="fill:#F99746;" d="M2339.25,1392.86c0,0,8.64,31.22,38.53,27.23s72.4-21.92,72.4-21.92s-12.77-40.36-28.66-93.39
		c-19.23-64.2-43.03-146.95-54.25-199.15c-3.15-14.63-5.3-26.84-6.1-35.59l-24.8-48.12c0,0-36.98,82.99-38.97,103.91
		C2295.41,1146.76,2339.25,1392.86,2339.25,1392.86z"/>
	<path style="fill:#FFB27D;" d="M2369.1,1122.71l-32.73-100.79c0.09,0.04,41.34,12.27,62.09,22.76c0,0,12.97,16.72,20.99,55.3
		c0,0,8.48,92.61-10.45,126.49c0,0-59.78,11.96-155.43-20.92v-21.92c0,0,104.62,5.48,126.04,7.97L2369.1,1122.71z"/>
	<path style="fill:#ED7D2B;" d="M2340.57,1169.67c1.34,33.88,9.31,99.64,80.38,134.84c0.19,0.09,0.38,0.19,0.57,0.27
		c-19.23-64.2-43.03-146.95-54.25-199.15C2354.22,1125.13,2339.85,1151.02,2340.57,1169.67z"/>
	<path style="fill:#F99746;" d="M2336.37,1021.92c0,0,60.67,4.27,75.29,36.82c14.61,32.55,19.26,140.82,0.66,172.7
		c0,0-25.61,7.29-70.9-1.18c-0.56-0.1-1.11-0.21-1.67-0.32c0,0-14.45-35.37-1.5-42.35c0,0,38.19,1.99,34.21-10.63
		C2368.48,1164.36,2336.37,1021.92,2336.37,1021.92z"/>
	<g>
		<path style="fill:#A9453D;" d="M2184.25,1197.17l1.79,5.74l99.56-30.97c0,0,1.33-1.51,0.67-3.52c-0.72-2.22-2.46-2.22-2.46-2.22
			L2184.25,1197.17z"/>
		<polygon style="fill:#A9453D;" points="2177.05,1202.59 2184.25,1197.17 2186.03,1202.91 		"/>
	</g>
	<path style="fill:#FFB27D;" d="M2161.24,1333.08c0,0-25.26,13.96-28.58,24.59c-3.32,10.63-1.04,32.9,2.97,32.57
		c4.01-0.33,9.99-23.93,13.31-25.59c3.32-1.66,7.98-6.64,7.98-2.99c0,3.65-3.32,10.3-1.66,11.3c1.66,1,6.98-9.3,10.63-11.3
		c3.66-1.99,5.19-18.43,8.74-22.84C2178.19,1334.41,2161.24,1333.08,2161.24,1333.08z"/>
	<path style="fill:#FFB27D;" d="M2253.56,1183.62c0,0-22.59-13.91-32.06-11.77c-9.48,2.14-33.62,19.63-22.01,23.42
		c11.61,3.79,21.02-0.19,25.49,2.56c4.47,2.75,7.76,7.78,28.58,7.71C2274.38,1205.47,2253.56,1183.62,2253.56,1183.62z"/>
</g>
<g>
	<g style="opacity:0.6;">
		<g>
			<path style="fill:#77A4E5;" d="M1159.7,1841.59h-0.37c-2.2,0-3.96-1.81-3.91-4l5.93-257.03l17.47-2.04l-14.9,259.09
				C1163.79,1839.84,1161.94,1841.59,1159.7,1841.59z"/>
		</g>
		<g>
			<path style="fill:#77A4E5;" d="M1057.91,1841.59h-0.37c-2.2,0-3.96-1.81-3.91-4l5.93-257.03l17.47-2.04l-14.9,259.09
				C1062,1839.84,1060.15,1841.59,1057.91,1841.59z"/>
		</g>
		<g>
			<path style="fill:#77A4E5;" d="M1338.81,1841.59h0.37c2.2,0,3.96-1.81,3.91-4l-5.93-257.03l-17.47-2.04l14.9,259.09
				C1334.72,1839.84,1336.57,1841.59,1338.81,1841.59z"/>
		</g>
		<path style="fill:#77A4E5;" d="M1046.33,1564.61v-176.13c0-30.99,25.12-56.12,56.12-56.12h126.9c30.99,0,56.12,25.12,56.12,56.12
			v182.86L1046.33,1564.61z"/>
		<path style="fill:#77A4E5;" d="M1308.2,1592.42h-245.02c-9.31,0-16.85-7.54-16.85-16.85v-10.96h261.86V1592.42z"/>
		<path style="fill:#77A4E5;" d="M1337.56,1592.42H1152.2c-6.88,0-12.46-5.58-12.46-12.46v-2.89c0-6.88,5.58-12.46,12.46-12.46
			h185.36c6.88,0,12.46,5.58,12.46,12.46v2.89C1350.02,1586.84,1344.44,1592.42,1337.56,1592.42z"/>
	</g>
	<g>
		<path style="fill:#FFB27D;" d="M1476.24,1739.1c1.77,8.85,14.39,7.38,28.49,3.93c14.1-3.44,10.75,0.65,30.81-1.57
			c20.07-2.22,26.14-9.7,26.76-12.69c0.55-2.65-9.37-3.58-20-4.81c-1.34-0.15-2.68-0.32-4.02-0.48c-12.01-1.51-20.8-9.25-31.7-15.62
			c-10.33-6.03-25.75-30.58-25.75-30.58l-27.52,2.18c0,0,14.44,21.93,20.02,31.47c3.29,5.61,3.11,13.02,2.7,18.75
			C1475.82,1732.8,1475.61,1735.98,1476.24,1739.1z"/>
		<path style="fill:#233862;" d="M1504.73,1743.03c14.1-3.44,10.75,0.65,30.81-1.57c20.07-2.22,26.14-9.7,26.76-12.69
			c0.55-2.65-9.37-3.58-20-4.81l-0.1,0.2c0,0-12.03,8.53-28.73,8.93c-13.61,0.33-28.03-3.57-37.43-3.42
			c-0.21,3.11-0.42,6.29,0.21,9.41C1478.01,1747.95,1490.63,1746.48,1504.73,1743.03z"/>
		<path style="fill:#FFB27D;" d="M1239.76,1778.7c-5.47,7.18,3.99,15.67,15.9,23.96c11.91,8.29,6.62,8.49,21.56,22.07
			c14.94,13.58,24.57,13.19,27.21,11.67c2.35-1.34-3.51-9.39-9.63-18.18c-0.77-1.1-1.54-2.22-2.3-3.34
			c-6.81-10-6.82-21.72-9.26-34.11c-2.31-11.73,16.85-54.86,16.85-54.86l-30.78-3.87c0,0-4.02,26.04-7.48,36.54
			c-2.03,6.17-10.58,10.24-15.15,13.72C1244.21,1774.21,1241.69,1776.17,1239.76,1778.7z"/>
		<path style="fill:#233862;" d="M1255.66,1802.66c11.91,8.29,6.62,8.49,21.56,22.07c14.94,13.58,24.57,13.19,27.21,11.67
			c2.35-1.34-3.51-9.39-9.63-18.18l-0.22,0.06c0,0-14.36-3.38-25.71-15.64c-9.25-9.99-15.87-23.38-22.2-30.33
			c-2.48,1.9-5,3.85-6.92,6.39C1234.3,1785.88,1243.75,1794.37,1255.66,1802.66z"/>
		<path style="fill:#163560;" d="M1365.48,1558.24l-28.12,75.65l-36.71,98.78c0,0-9.96,0.96-19.5-1.78
			c-8.78-2.54-18.86-9.18-18.86-9.18s10.19-106.07,29.21-166.95c4.87-15.63,10.33-28.27,16.36-35.38
			C1337.34,1484.54,1365.48,1558.24,1365.48,1558.24z"/>
		<path style="fill:#2A4E96;" d="M1336.89,1438.09c-18.42-5.94-73.92-2.4-126.7,7.93l-8.08-14.14l-113.99-8.9
			c0,0-37.61,83.41-17.02,136.56c3.03,7.81,9.04,12.82,19.29,12.99c0,0,1.66-0.01,1.67,0c0,0,67.84-0.04,89.87-0.04
			c56.69,0,119.97-38.97,128.16-40.6c13.4-2.68,18.76,24.12,32.16,52.26c13.4,28.14,125.95,124.61,125.95,124.61
			s17.3,0.17,24.45-2.51c7.68-2.88,10.5-6.63,10.5-6.63S1378.43,1451.49,1336.89,1438.09z"/>
		<path style="fill:#233862;" d="M1162.2,1086.85c-16.04-3.82-37.83,0.67-41.45,1.09c-43.29,5.05-52.97,72.29-49.75,91.1
			c5.93,34.66-10.71,44.43-30.58,72.15c-39.83,55.59-12.32,101.36,20.11,112.7c19.46,6.81,45.96-11.73,45.96-11.73
			c0.49,0.18,68.83-65.06,102.63-96.75C1265.96,1231.99,1203.08,1096.59,1162.2,1086.85z"/>
		<path style="fill:#FFB27D;" d="M1171.47,1245.39c0.2,0.07-17.62,11.71-32.15,9.26c-13.67-2.29-28.13-20.13-27.95-20.18
			c5.52-1.68,10.41-8.13,6.96-41.39l2.6,0.25l43.67,4.19c0,0,0.38,13.57,1.62,26.27C1167.25,1234.45,1168.91,1244.5,1171.47,1245.39
			z"/>
		<path style="fill:#ED975D;" d="M1164.6,1197.52c0,0,0.38,13.57,1.62,26.27c-24.03,1.73-38.89-18.87-45.29-30.46L1164.6,1197.52z"
			/>
		<path style="fill:#FFB27D;" d="M1173.8,1208.74c0,0-56.6,6.61-60.18-28.7c-3.58-35.31-13.29-58.24,22.7-63.96
			c35.99-5.72,44.39,7.05,48.45,18.54C1188.83,1146.12,1188.43,1206.11,1173.8,1208.74z"/>
		<path style="fill:#233862;" d="M1178.02,1116.49c0,0-27.33,39.13-50.54,47.64c-23.21,8.51-34.18,3.17-34.18,3.17
			s11.07-15.25,14.72-36.22c1.08-6.18,5.37-11.33,11.29-13.4C1135.95,1111.86,1168.04,1102.96,1178.02,1116.49z"/>
		<path style="fill:#233862;" d="M1155.43,1119.37c0,0,14.61,8.34,20.45,15.81c5.63,7.2,11.65,26.33,10.78,34.76
			c0,0,9.2-40.17-5.54-54.78C1165.48,1099.66,1155.43,1119.37,1155.43,1119.37z"/>
		<path style="fill:#FFFFFF;" d="M1214.99,1339.08c-1.71,114.33-0.47,90.44-12.98,101.29c-3.01,2.61-11.49,4.17-22.64,4.91
			c-35.06,2.33-96.69-3.45-99.03-9.93c-8.09-22.42-2.38-29.38-9.12-63.7c-0.7-3.65-1.57-7.6-2.6-11.9
			c-5.63-23.57-11.1-31.59,8.86-69.46c18.1-34.3,37.64-61.71,39.33-60.7c47.75,28.34,50.86,4.08,50.86,4.08
			S1215.83,1283.32,1214.99,1339.08z"/>
		<path style="fill:#2A4E96;" d="M1337.37,1633.89l-37.54,102.9c0,0-13.49,4.39-23.31,2.96c-10.01-1.46-15.49-6.92-15.49-6.92
			s11.47-117.19,30.48-178.07L1337.37,1633.89z"/>
		<path style="fill:#FFFFFF;" d="M1167.68,1233.65c0,0,49.13,8.33,54.9,29.48c5.77,21.15,47.96,137.72,47.96,137.72
			s-33.22,12.28-44.76,0.74c-11.54-11.54-40.15-107.05-40.15-107.05L1167.68,1233.65z"/>
		<path style="fill:#DFEBFD;" d="M1179.38,1445.28c-35.06,2.33-96.69-3.45-99.03-9.93c-8.09-22.42-2.38-29.38-9.12-63.7l16.44-37.44
			c0,0-2.33,42.85,13.31,56.79c15.62,13.95,64.02,26.92,71.62,38.57C1176.26,1435.17,1178.68,1440.78,1179.38,1445.28z"/>
		<g>
			<path style="fill:#FFB27D;" d="M1182.23,1420.88c0,0,10.44,9.01,13.41,9.73c2.97,0.73,4.66,0.05,4.66,0.05l-7.61-8.91
				L1182.23,1420.88z"/>
			<path style="fill:#FFB27D;" d="M1178.1,1410.27l26.44,6.82c0,0-0.69,1.88-3.68,2.35c-2.99,0.46-11.02-0.76-11.02-0.76
				L1178.1,1410.27z"/>
			<path style="fill:#FFB27D;" d="M1133.27,1424.84c0,0,37.74-16.79,44.82-14.57c7.09,2.22,25.25,11.84,28.1,15.89
				c2.85,4.05-14.88-0.5-20.42-0.85c-3.59-0.22-11.91,4.7-16.04,7.07c-17.39,9.99-29.47,9.1-29.47,9.1L1133.27,1424.84z"/>
		</g>
		<path style="fill:#FFFFFF;" d="M1116.82,1229.58c0,0-53.4,10.02-63.29,24.82c-21.58,32.29-67.53,166.08-41.8,184.03
			c28.98,20.2,131.87,5.29,131.87,5.29s3.42-16.01-1.34-23.75c-4.76-7.74-82.19-20.25-85.76-23.82
			c-3.57-3.57,35.3-55.24,31.16-65.13C1074.4,1299.33,1116.82,1229.58,1116.82,1229.58z"/>
		<g>
			<path style="fill:#FFB27D;" d="M1327.89,1419.14c0,0,37.37,10.09,41.21,15.89c3.84,5.8,11.37,23.53,11.05,28.16
				c-0.32,4.63-10.52-9.16-14.34-12.68c-2.47-2.28-11.44-3.62-15.84-4.34c-11.11-1.81-16.46-6.89-20.63-9.42
				c-2.79-1.7-6.18-1.38-6.18-1.38L1327.89,1419.14z"/>
			<path style="fill:#FFB27D;" d="M1365.84,1445.19c0,0,2.27,12.72,4,15c1.73,2.28,3.36,2.79,3.36,2.79l-0.27-10.98L1365.84,1445.19
				z"/>
			<path style="fill:#FFB27D;" d="M1369.1,1435.03l15.19,20.59c0,0-1.61,0.96-4.06-0.47c-2.45-1.43-7.57-7.06-7.57-7.06
				L1369.1,1435.03z"/>
			<path style="fill:#FFB27D;" d="M1329.33,1436.75c0,0,3.47,8.41,10.38,11.42c6.92,3.02,11.99,7.54,13.1,5.91
				c1.11-1.63-5.24-10.2-5.24-10.2L1329.33,1436.75z"/>
		</g>
		<path style="fill:#FFFFFF;" d="M1260.62,1373.29l78.59,49.68c0,0-8.26,11.04-11.01,12.05c-14.55,5.34-80,0.22-102.41-33.43
			L1260.62,1373.29z"/>
		<g>
			<path style="fill:#F9DDBF;" d="M1229.48,1427.29c4.64-0.01,50.76-3.2,50.76-3.2s-1.33,8.18,1.52,12.55l-44.95,8.6l-9.24-2.71
				L1229.48,1427.29z"/>
			<g>
				<path style="fill:#F99746;" d="M1152.54,1434.71l76.94-7.41c0,0-2.71,14.23,7.33,17.95l-84.82,6.2
					C1151.99,1451.45,1145.16,1441.82,1152.54,1434.71z"/>
				<path style="fill:#F99746;" d="M1280.11,1425.11l-51.99,4c0,0,0.39-1.8,1.36-1.82c0.97-0.02,51.65-3.7,51.65-3.7l-0.18,1.42
					L1280.11,1425.11z"/>
				<polygon style="fill:#F99746;" points="1236.81,1445.24 1282.6,1436.54 1282.18,1435.36 1233.38,1444.7 				"/>
			</g>
		</g>
	</g>
</g>
<g>
	<g>
		<g>
			<path style="fill:#77A4E5;" d="M703.94,1841.18h-0.41c-2.44,0-4.4-2.02-4.34-4.47l6.58-287l19.39-2.28l-16.54,289.3
				C708.48,1839.23,706.42,1841.18,703.94,1841.18z"/>
		</g>
		<g>
			<path style="fill:#77A4E5;" d="M590.93,1841.18h-0.41c-2.44,0-4.4-2.02-4.34-4.47l6.58-287l19.39-2.28l-16.54,289.3
				C595.48,1839.23,593.42,1841.18,590.93,1841.18z"/>
		</g>
		<g>
			<path style="fill:#77A4E5;" d="M902.76,1841.18h0.41c2.44,0,4.4-2.02,4.34-4.47l-6.58-287l-19.39-2.28l16.54,289.3
				C898.22,1839.23,900.27,1841.18,902.76,1841.18z"/>
		</g>
		<path style="fill:#77A4E5;" d="M578.08,1531.91v-196.67c0-34.61,27.89-62.66,62.29-62.66h140.87c34.4,0,62.29,28.05,62.29,62.66
			v204.18L578.08,1531.91z"/>
		<path style="fill:#77A4E5;" d="M868.78,1562.96H596.84c-10.36,0-18.76-8.4-18.76-18.76v-12.29h290.7V1562.96z"/>
		<path style="fill:#77A4E5;" d="M901.33,1562.96H695.64c-7.66,0-13.87-6.21-13.87-13.87v-3.31c0-7.66,6.21-13.87,13.87-13.87
			h205.69c7.66,0,13.87,6.21,13.87,13.87v3.31C915.2,1556.75,908.99,1562.96,901.33,1562.96z"/>
	</g>
	<g>
		<path style="fill:#F9DDBF;" d="M790.73,1199.95c0,0-11.79,10.03-14.35,36.04c-1.95,19.75,11.76,173.09,22.07,185.28
			c29.01,34.29,65.37,19.8,79.61,25.01l13.43-12.07c0,0-47.24-34.87-50.83-46.24C826.81,1344.18,835.39,1216.49,790.73,1199.95z"/>
		<path style="fill:#163560;" d="M782.25,1074.88c0,0,0.8-28.12-36.29-33.64c-37.09-5.52-47.34,3.15-53.64,12.61
			c-6.31,9.46-18.13,48.08-16.95,63.46c1.18,15.37,43.49,34.38,42.8,43.35C717.47,1169.62,782.25,1074.88,782.25,1074.88z"/>
		<path style="fill:#FFB27D;" d="M954.28,1816.92c-1.2,9.5,11.76,12.3,26.84,13.62c15.08,1.32,10.4,4.3,30.97,8.88
			c20.56,4.58,29.07-0.88,30.66-3.68c1.42-2.48-8.06-6.78-18.16-11.62c-1.27-0.6-2.54-1.23-3.82-1.85
			c-11.36-5.59-17.46-16.37-26.12-26.46c-8.2-9.57-15.24-39.49-15.24-39.49l-27.91-7.15c0,0,6.95,26.96,9.29,38.44
			c1.38,6.75-1.27,14.15-3.59,19.77C955.96,1810.44,954.7,1813.57,954.28,1816.92z"/>
		<path style="fill:#233862;" d="M981.11,1830.54c15.08,1.32,10.4,4.3,30.97,8.88c20.56,4.58,29.07-0.88,30.66-3.68
			c1.42-2.48-8.06-6.78-18.16-11.62l-0.17,0.17c0,0-14.73,4.49-31.37-0.77c-13.56-4.29-26.5-13.1-35.84-16.14
			c-1.25,3.06-2.51,6.19-2.93,9.54C953.08,1826.42,966.04,1829.22,981.11,1830.54z"/>
		<path style="fill:#ED7D2B;" d="M745.29,1429.46c0,0,186.61,19.36,217.37,47.93c30.76,28.57,25.28,294.7,25.28,294.7
			c-4.79,4.97-8.32,4.85-15.89,4.26c-7.26-0.57-22.06-6.81-22.06-6.81s-39.97-130.68-40.46-160.94c-0.5-30.26-6.82-81.6-19.51-84.63
			c-12.69-3.03-163.77,13.91-180.33-33.81c-16.56-47.72,10.94-86.98,10.94-86.98L745.29,1429.46z"/>
		<path style="fill:#F9DDBF;" d="M658.12,1477.46c8.05,5.39,22.45,13.7,46.61,14.56c43.23,1.57,97.17-3.58,107.79-13.61
			c2.76-2.59,4.1-6.88,4.48-12.32c1.17-16.59-6.75-43.88-12.07-66.46c-3.45-14.67-5.81-27.35-3.88-33.83
			c5.86-19.72,24.09-59.91,25.66-73.12c1.57-13.21-14.19-83.97-35.98-92.74c-21.8-8.77-105.91,0-105.91,0
			c-32.86,6.67-34.24,76.73-23.33,136.35c0.28,1.54,0.57,3.06,0.86,4.58C674.18,1401.43,635.66,1462.41,658.12,1477.46z"/>
		<g>
			<path style="fill:#FFB27D;" d="M766.78,1212.83c-0.59,3.84-11.11,10.07-33.59,4.15c-21.54-5.68-24.13-12.7-24.12-17.33
				c0.01-5.48,9.36-12.87,9.24-46.61l2.58,0.51l43.43,8.6c0,0-0.99,13.67-1.02,26.55C763.28,1199.51,767.77,1206.44,766.78,1212.83z
				"/>
			<path style="fill:#ED975D;" d="M764.33,1162.15c0,0-0.99,13.67-1.02,26.55c-24.3-0.69-37.15-22.86-42.42-35.15L764.33,1162.15z"
				/>
			<path style="fill:#FFB27D;" d="M772.44,1174.34c0,0-57.5,0.95-57.54-34.87c-0.04-35.82-7.49-59.82,29.23-61.94
				c36.71-2.12,43.86,11.54,46.78,23.49C793.83,1112.98,787.4,1173.17,772.44,1174.34z"/>
			<path style="fill:#163560;" d="M770.31,1076.65c0,0-15.75,42.02-39.91,48.24c-24.16,6.21-34.64-0.26-34.64-0.26
				s18.53-14.72,22.38-40.43C718.14,1084.2,758.44,1056.65,770.31,1076.65z"/>
			<path style="fill:#163560;" d="M766.41,1080.06c0,0,11.76,9.38,14.63,18.5c2.87,9.12,4.16,27.9,9.63,27.26
				c0,0,11.86-28.56-1.47-44.72C775.06,1063.97,766.41,1080.06,766.41,1080.06z"/>
		</g>
		<path style="fill:#FFB27D;" d="M814.13,1824.73c-0.14,9.58,13.05,10.87,28.18,10.44c15.13-0.42,10.81,3.08,31.75,5.25
			c20.94,2.18,28.78-4.23,30.06-7.18c1.14-2.62-8.76-5.81-19.33-9.45c-1.33-0.45-2.66-0.93-4-1.4
			c-11.91-4.24-19.17-14.25-28.89-23.29c-9.21-8.56,11.12-49.97,11.12-49.97l-26.64-13.19c0,0-5.05,29.57-11.56,55.43
			c-1.68,6.68-7.16,17.69-8.83,23.54C815.08,1818.1,814.17,1821.35,814.13,1824.73z"/>
		<path style="fill:#F2CCAA;" d="M659.27,1470.34c8.05,5.39,21.3,20.82,45.46,21.68c39.87-9.07,85.26-19.63,112.27-25.93
			c1.17-16.59-6.75-43.88-12.07-66.46c-31.49,9.61-78.35-23.14-94.1-36.09c-16.55-13.6-16.03-58.91-16.03-58.91l-33.31,31.66
			c0.28,1.54,0.57,3.06,0.86,4.58C674.18,1401.43,636.81,1455.29,659.27,1470.34z"/>
		<path style="fill:#233862;" d="M842.3,1835.17c15.13-0.42,10.81,3.08,31.75,5.25c20.94,2.18,28.78-4.23,30.06-7.18
			c1.14-2.62-8.76-5.81-19.33-9.45l-0.15,0.19c0,0-14.14,6.16-31.25,2.85c-13.95-2.7-27.79-9.96-37.41-11.91
			c-0.9,3.18-1.81,6.44-1.85,9.81C813.99,1834.31,827.18,1835.59,842.3,1835.17z"/>
		<path style="fill:#F99746;" d="M705.02,1440.84c47.38-1.35,188.89,9.95,216.07,30.44c33.46,25.23-62.13,298.05-62.13,298.05
			s-11.1,1.07-14.61,0.68c-15.18-1.72-21.36-6.34-21.36-6.34s0.37-160.58,11.54-191.29c10.32-28.38,16.64-38.42,3.72-40.12
			c-12.93-1.7-174.3,18.89-187.77-29.83c-10.52-38.05,5.02-73.27,5.02-73.27S661.32,1442.08,705.02,1440.84z"/>
		<path style="fill:#F9DDBF;" d="M684.82,1199.94c0,0-32.91,2.79-35.47,28.81c-1.95,19.75-16.26,159.85-5.95,172.04
			c29.01,34.29,125.74,41.56,139.98,46.76l3.92-16.22c0,0-103.26-52.03-101.69-63.85C687.18,1355.66,716.38,1195.26,684.82,1199.94z
			"/>
		<path style="fill:#163560;" d="M710.23,1055.38c0,0,2.36-15-18.45-18.88c-20.81-3.87-21.2,40.33-23.43,50.99
			c-2.23,10.66,3.33,17.04,11.26,17.69C687.55,1105.82,710.23,1055.38,710.23,1055.38z"/>
		<g>
			<path style="fill:#FFB27D;" d="M788.41,1430.62c0,0,29.41-8.32,36.41-6.38c7.01,1.95,31.01,17.84,27.63,22.15
				c-3.37,4.32-24.52-2.58-34.25-1.28c-9.73,1.31-17.25,6.11-24.26,5.07c-7-1.04-14.33-3.79-14.33-3.79L788.41,1430.62z"/>
			<path style="fill:#FFB27D;" d="M788.41,1430.62c0,0,14.39-7.39,18.48-11.6c0.52-0.53,1.39-0.42,1.79,0.21
				c1.1,1.73,2.12,5.07-2.92,8.39C798.5,1432.4,788.41,1430.62,788.41,1430.62z"/>
		</g>
		<g>
			<path style="fill:#FFB27D;" d="M891.49,1434.2c0,0,30.52,1.67,36.51,5.78c5.99,4.11,23.54,26.93,18.95,29.92
				c-4.59,2.99-22.35-10.4-31.98-12.32c-9.63-1.92-18.3,0.18-24.59-3.08c-6.29-3.25-12.32-8.24-12.32-8.24L891.49,1434.2z"/>
		</g>
	</g>
</g>
<g>
	<g>
		<path style="fill:#1B3051;" d="M681.84,1843.69H557.66c-5.97-7.29-3.77-34.18-2.87-42.96c0.19-1.77,0.31-2.8,0.31-2.8
			s42.4-33.92,48.23-7.95c0.18,0.82,0.39,1.61,0.63,2.4c7.34,24.29,40.25,35.33,59.26,38.4
			C675.58,1832.78,680.15,1839.21,681.84,1843.69z"/>
		<path style="fill:#233862;" d="M343.02,1440.21c4.48,0,212.7,39.09,247.14,81.73c17.21,21.3,19.76,267.27,19.76,267.27
			s-21.29,26.39-67.26,11.07c0,0-33.71-168.29-31.22-219.33c0.69-14.11-142.26-2.04-168.43-8.81
			c-26.16-6.77-90.09-63.69-76.01-91.42C281.1,1452.98,343.02,1440.21,343.02,1440.21z"/>
		<path style="fill:#FFB27D;" d="M493.78,1428.65c0,0,13.33,11.5,26.99,14.75c7.79,1.85,15.34,3.97,19.83,6.03
			c12.36,5.68,35.82,31.01,33.64,33.53c-6.99,8.07-35.16-12.95-40.55-11.47c-5.39,1.48,8.84,13.71,3.2,17.03
			c-2.95,1.73-8.5-8.82-13.7-10.31c-7.03-2.01-11.7-12.63-13.8-13.35c-4.1-1.41-21.21-16.75-21.21-16.75L493.78,1428.65z"/>
		<path style="fill:#1E3C68;" d="M736.71,1843.69H612.54c-5.97-7.29-3.77-34.18-2.87-42.96c0.19-1.77,0.31-2.8,0.31-2.8
			s42.4-33.92,48.23-7.95c0.18,0.82,0.39,1.61,0.63,2.4c7.34,24.29,40.25,35.33,59.26,38.4
			C730.46,1832.78,735.02,1839.21,736.71,1843.69z"/>
		<path style="fill:#2B478B;" d="M404.37,1440.21c4.48,0,212.7,39.09,247.14,81.73c17.21,21.3,19.76,267.27,19.76,267.27
			s-21.29,26.39-67.26,11.07c0,0-33.71-168.29-31.22-219.33c0.69-14.11-142.26-2.04-168.43-8.81
			c-26.16-6.77-90.09-63.69-76.01-91.42C342.45,1452.98,404.37,1440.21,404.37,1440.21z"/>
		<path style="fill:#FFB27D;" d="M391.34,1187.18c-14.98-1.24-30.68-5.23-44.26-9.63c-16.97-5.51-30.64-13.55-21.83-29.06
			c8.12-14.29,21.27-46.22,20.38-72.67l31.57,25.44l21.45,17.28c0,0-0.09,10.19-2.43,28.04c-0.43,3.25-0.93,6.77-1.52,10.52
			c-0.48,3.03,0.92,6.06,3.53,7.68c0.16,0.1,0.32,0.2,0.48,0.3C409.37,1171.79,403.89,1188.22,391.34,1187.18z"/>
		<path style="fill:#ED975D;" d="M398.66,1114.33c0,0,1.1,3.7-0.79,17.36c-19.12-3.12-36.99-18.37-36.99-18.37
			c9.73-2.67,13.28-13.19,20.53-12.21L398.66,1114.33z"/>
		<path style="fill:#FFB27D;" d="M416.34,1117.45c0,0-73.55,12.22-80.45-33.7c-6.9-45.92-21.05-75.27,25.62-85.01
			c46.67-9.74,58.45,6.4,64.48,21.17C432.02,1034.67,435.29,1113.09,416.34,1117.45z"/>
		<path style="fill:#2B478B;" d="M436.8,999.59c3.16,11.06-5.29,24.53-19.48,28.96c-21.06,6.58-16.41,32.42-25.89,32.07
			c-9.48-0.35-13.3-14.85-21.77-3.27c-7.22,9.88,6.01,21.6,5.1,27.01c-1.56,9.3-16.13,28.34-29.27,27.38
			c-13.13-0.95-37.7-63.36-32.79-82.67c4.91-19.31,24.57-39.67,43.18-42.47c18.6-2.81,44.44,5.23,50.41,5.23
			C412.27,991.82,435.1,993.61,436.8,999.59z"/>
		<path style="fill:#FFFFFF;" d="M455.05,1426.44c-1.23,10.6-3.46,17.81-6.97,20.15c-10.96,7.34-25.5,16.47-41.73,25.51
			c-57.53,32.08-136.3,63.04-152.31,8.82c-18.82-63.68-6.46-183.25,12-257.52c10.62-42.79,40.01-87.68,59.88-87.63
			c33.85,0.06,82.51,8.99,102.16,57.46c7.61,18.78,18.79,83.84,24.49,143.45C455.97,1372.2,457.42,1405.77,455.05,1426.44z"/>
		<path style="fill:#DFEBFD;" d="M322.5,1136.19l7.66-17.27c0,0,67.95,6.92,79.48,45.96
			C409.65,1164.89,357.12,1137.03,322.5,1136.19z"/>
		<path style="fill:#DFEBFD;" d="M455.05,1426.44c-1.23,10.6-3.46,17.81-6.97,20.15c-10.96,7.34-25.5,16.47-41.73,25.51
			c-16.93-10.29-51.69-34.85-59.82-63.79c-10.62-37.84-3.18-84.41-3.18-84.41L455.05,1426.44z"/>
		<path style="fill:#FFFFFF;" d="M336.28,1194.42c0,0,5.89,162.65,15.14,194.81c15.77,54.84,159.62,74.37,159.62,74.37
			s8.49-9.62,4.69-25.56c0,0-86-67.78-88.51-80.69c-2.52-12.9,18.74-100.35-5.55-132.15C397.39,1193.4,352.6,1165.85,336.28,1194.42
			z"/>
	</g>
	<g>
		<g>
			<path style="fill:#77A4E5;" d="M155.94,1842.14l-0.47-0.01c-3.87-0.07-6.86-3.24-6.5-6.88l25.84-258.09l22.55,2.01l-37.11,259.47
				C159.96,1840.68,158.11,1842.18,155.94,1842.14z"/>
		</g>
		<g>
			<path style="fill:#77A4E5;" d="M288.95,1842.14l-0.47-0.01c-3.87-0.07-6.87-3.24-6.5-6.88l25.84-258.09l22.55,2.01l-37.11,259.47
				C292.97,1840.68,291.12,1842.18,288.95,1842.14z"/>
		</g>
		<g>
			<path style="fill:#77A4E5;" d="M538.67,1842.14l0.47-0.01c3.87-0.07,6.87-3.24,6.5-6.88l-25.84-258.09l-22.55,2.01l37.11,259.47
				C534.65,1840.68,536.5,1842.18,538.67,1842.14z"/>
		</g>
		<path style="fill:#77A4E5;" d="M163.24,1540.6l-24.53-215.56c-3.22-31.06,7.18-61.48,52.01-63.83l78.86-4.8
			c46.74-1.93,67.84,36.97,73.76,66.92l46.82,236.95L163.24,1540.6z"/>
		<path style="fill:#77A4E5;" d="M176.42,1580.94h350.01c7.03,0,12.79-5.75,12.79-12.79v-15.74c0-7.03-5.75-12.79-12.79-12.79
			h-362.8v28.53C163.64,1575.19,169.39,1580.94,176.42,1580.94z"/>
		<path style="fill:#77A4E5;" d="M173.57,1580.94h206.66c5.46,0,9.93-4.47,9.93-9.93v-21.46c0-5.46-4.47-9.93-9.93-9.93H163.64
			v31.39C163.64,1576.47,168.1,1580.94,173.57,1580.94z"/>
	</g>
</g>
<path style="fill:#2E3552;" d="M3173.38,1853.22H57.75c-2.42,0-4.4-1.98-4.4-4.4v-4c0-2.42,1.98-4.4,4.4-4.4h3115.63
	c2.42,0,4.4,1.98,4.4,4.4v4C3177.78,1851.24,3175.8,1853.22,3173.38,1853.22z"/>
<g>
	<path style="fill:#77A4E5;" d="M717.87,885.82H596.71c-5.56,0-10.11-4.55-10.11-10.11V758.76c0-5.56,4.55-10.11,10.11-10.11h121.17
		c5.56,0,10.11,4.55,10.11,10.11v116.95C727.98,881.27,723.43,885.82,717.87,885.82z"/>
	<path style="fill:#DFEBFD;" d="M712.62,879.88H601.95c-5.08,0-9.24-4.16-9.24-9.24V763.83c0-5.08,4.16-9.24,9.24-9.24h110.67
		c5.08,0,9.24,4.16,9.24,9.24v106.81C721.86,875.72,717.7,879.88,712.62,879.88z"/>
	<g>
		<g>
			<circle style="fill:#77A4E5;" cx="657.29" cy="767.11" r="2.93"/>
			<circle style="fill:#77A4E5;" cx="680.55" cy="772.67" r="2.93"/>
			<circle style="fill:#77A4E5;" cx="699.83" cy="789.79" r="2.93"/>
			<circle style="fill:#77A4E5;" cx="708.27" cy="815.16" r="2.93"/>
			<circle style="fill:#77A4E5;" cx="701.08" cy="843.2" r="2.93"/>
			<circle style="fill:#77A4E5;" cx="682.69" cy="861.64" r="2.93"/>
			<circle style="fill:#77A4E5;" cx="657.29" cy="869.07" r="2.93"/>
		</g>
		<g>
			<circle style="fill:#77A4E5;" cx="633.93" cy="772.67" r="2.93"/>
			<circle style="fill:#77A4E5;" cx="614.66" cy="789.79" r="2.93"/>
			<circle style="fill:#77A4E5;" cx="606.21" cy="815.16" r="2.93"/>
			<circle style="fill:#77A4E5;" cx="613.41" cy="843.2" r="2.93"/>
			<circle style="fill:#77A4E5;" cx="631.8" cy="861.64" r="2.93"/>
		</g>
	</g>
	<g>
		<circle style="fill:#77A4E5;" cx="659.43" cy="815.16" r="2.93"/>
		<g>
			<rect x="659.03" y="778.57" style="fill:#77A4E5;" width="0.8" height="36.59"/>
		</g>
		<g>
			
				<rect x="667.56" y="795.16" transform="matrix(0.6175 0.7866 -0.7866 0.6175 891.014 -217.1449)" style="fill:#77A4E5;" width="2.4" height="24.66"/>
		</g>
	</g>
</g>
</svg>
