<?xml version="1.0" encoding="utf-8"?>
<!-- Generator: Adobe Illustrator 17.0.0, SVG Export Plug-In . SVG Version: 6.00 Build 0)  -->
<!DOCTYPE svg PUBLIC "-//W3C//DTD SVG 1.1//EN" "http://www.w3.org/Graphics/SVG/1.1/DTD/svg11.dtd">
<svg version="1.1" id="Calque_1" xmlns="http://www.w3.org/2000/svg" xmlns:xlink="http://www.w3.org/1999/xlink" x="0px" y="0px"
	 width="2355px" height="948px" viewBox="0 0 2355 948" style="enable-background:new 0 0 2355 948;" xml:space="preserve">
<path style="fill:#FFFFFF;" d="M443.82,419.33c-21.24-25.1-51.8-37.66-91.65-37.66c-25.1,0-46.21,4.82-63.32,14.44
	c-17.11,9.63-33.14,25.71-48.1,48.23c-24.46-41.78-59.45-62.68-104.93-62.68c-38.35,0-69.55,12.55-93.58,37.66
	c-24.03,25.15-36.07,57.52-36.07,97.15v319.69H138.1V547.69c0-23.6,6.49-35.42,19.47-35.42c6.92,0,11.61,2.36,13.97,7.13
	c2.41,4.77,3.57,14.19,3.57,28.28v288.49h131.93V545.41c0-22.1,6.49-33.14,19.47-33.14c6.92,0,11.56,2.32,13.84,6.96
	c2.23,4.69,3.4,14.14,3.4,28.46v288.49h131.88v-308.3C475.63,480.63,465.01,444.47,443.82,419.33"/>
<path style="fill:#FFFFFF;" d="M239.42,202.87c-46.22,0-83.69,37.47-83.69,83.69c0,46.22,37.47,83.69,83.69,83.69
	c46.22,0,83.69-37.47,83.69-83.69C323.1,240.34,285.64,202.87,239.42,202.87"/>
<path style="fill:#FFFFFF;" d="M20.83,411.5v-44.02c0-3.31-1.8-6.4-4.64-8.08v-32.54l130.08-1.72
	c-6.88-13.54-10.79-28.89-10.79-45.09c0-55.11,44.66-99.77,99.73-99.77c34.48,0,64.87,17.5,82.79,44.06l68.69-95.52l-248.03-11.91
	L16.18,311.34l-9.67,15.39l-0.17,0.26h0.17v32.41c-2.79,1.68-4.64,4.77-4.64,8.08v44.02c0,5.2,4.26,9.5,9.46,9.5
	C16.57,421.01,20.83,416.71,20.83,411.5"/>
<path style="fill:#FFFFFF;" d="M869.6,319.3c6.36,0,11.87-2.38,16.54-7.15c4.67-4.77,7-10.18,7-16.23c0-6.56-2.28-12.1-6.85-16.61
	c-4.57-4.51-10.13-6.77-16.69-6.77c-6.36,0-11.82,2.28-16.39,6.85c-4.56,4.57-6.85,10.08-6.85,16.54c0,6.57,2.26,12.11,6.77,16.62
	C857.65,317.05,863.14,319.3,869.6,319.3"/>
<path style="fill:#FFFFFF;" d="M869.6,377.3c6.25,0,11.74-2.28,16.46-6.85c4.72-4.56,7.08-10.08,7.08-16.54
	c0-6.56-2.28-12.1-6.85-16.61c-4.57-4.51-10.13-6.77-16.69-6.77c-6.36,0-11.82,2.29-16.39,6.85c-4.56,4.57-6.85,10.08-6.85,16.54
	c0,6.98,2.28,12.62,6.85,16.93C857.78,375.15,863.24,377.3,869.6,377.3"/>
<path style="fill:#FFFFFF;" d="M710.98,514.08c6.46,1.54,12.05,2.31,16.77,2.31h191.39l6.16-1.08c5.13-1.64,9.69-4.46,13.69-8.46
	c5.03-5.33,8.15-11.03,9.39-17.08l0.46-3.69v30h25.85v-44.46h-26.15v-61.39c-0.62-5.03-1.54-8.77-2.77-11.23
	c-3.69-7.49-10.16-11.23-19.39-11.23c-11.18,0-18.31,5.08-21.38,15.23c-0.72,1.84-1.08,4.15-1.08,6.92v52.77l-0.31,2.92
	c-0.41,2.05-1.18,3.54-2.31,4.46c-1.13,1.13-2.72,1.85-4.77,2.15c-0.31,0.21-1.23,0.31-2.77,0.31H729.9
	c-5.95-0.92-10.05-1.74-12.31-2.46c-8.21-3.18-12.31-8.77-12.31-16.77c0-9.02,4.15-15.23,12.46-18.62c1.23-0.62,2.87-1.13,4.92-1.54
	c2.05-0.41,4.56-0.77,7.54-1.08h94.62c5.02-0.62,8.77-1.54,11.23-2.77c7.49-3.69,11.23-10.15,11.23-19.38
	c0-9.13-3.75-15.59-11.23-19.39c-2.46-1.23-6.16-2.15-11.08-2.77h-97.7c-4,0-9.59,0.83-16.77,2.46
	c-12.92,3.18-23.23,8.72-30.92,16.61c-11.08,11.39-16.62,26.51-16.62,45.39c0,19.08,5.59,34.21,16.77,45.39
	C687.64,505.52,698.06,511.01,710.98,514.08"/>
<path style="fill:#FFFFFF;" d="M1214,279.69c-4.57,4.57-6.85,10.08-6.85,16.54c0,6.25,2.25,11.74,6.77,16.46
	c4.82,4.62,10.31,6.92,16.46,6.92c6.36,0,11.87-2.39,16.54-7.16c4.67-4.77,7-10.18,7-16.23c0-6.36-2.31-11.85-6.92-16.47
	c-4.62-4.61-10.15-6.92-16.61-6.92C1224.03,272.84,1218.57,275.12,1214,279.69"/>
<path style="fill:#FFFFFF;" d="M1230.39,516.08l7.69-1.08c5.85-1.54,10.64-4.18,14.39-7.92c3.74-3.74,6.39-8.54,7.92-14.39
	c0.31-0.82,0.56-1.9,0.77-3.23c0.2-1.33,0.31-2.82,0.31-4.46v-75.54c-0.72-5.03-1.64-8.77-2.77-11.23
	c-3.69-7.48-10.15-11.23-19.39-11.23c-9.13,0-15.59,3.74-19.39,11.23c-1.23,2.77-2.15,6.52-2.77,11.23v52.16l-0.31,2.92
	c-0.41,1.95-1.18,3.52-2.31,4.69c-1.13,1.18-2.18,1.87-3.15,2.08c-0.98,0.21-2.44,0.31-4.39,0.31h-31.54l-200.47-0.15v44.46
	l200.47,0.15H1230.39z"/>
<path d="M1454.67,433.96c-3.91-6.59-10.89-9.93-20.73-9.93c-9.84,0-16.87,3.39-20.9,10.1c-1.25,2.16-2.18,5.33-2.85,9.95v72.31
	l4.25,18.87c4.78,14.15,11.82,25.77,20.9,34.54l0.01,0.01c13.1,12.36,29.91,18.63,49.97,18.63c19.86,0,36.42-6.33,49.24-18.82
	c8.98-8.98,15.9-20.65,20.62-34.85l3.85-16.95l126.82-0.01l5.36-0.67l8.4-2.49c5.62-2.02,10.22-4.62,13.72-7.79
	c2.18-2.18,3.78-4.16,4.9-6.06l3.35-5.94c1.25-3.34,2.08-6.02,2.46-7.97c0.38-1.97,0.57-4.7,0.57-8.33v-76.78l-0.04-0.36
	c-0.97-4.62-2.08-8.05-3.48-10.6c-4.63-7.06-11.91-10.64-21.62-10.64c-9.67,0-16.65,3.77-20.73,11.16
	c-0.71,1.17-1.29,2.71-1.74,4.56c-0.42,1.74-0.8,3.84-1.13,6.49v67.8h-35.13l-0.02-68.02c-0.65-4.99-1.63-8.57-2.97-10.92
	c-4-7.34-11.04-11.07-20.92-11.07c-9.77,0-16.81,3.77-20.92,11.22c-1.35,2.46-2.32,5.98-2.98,10.99v67.8h-34.82l-0.02-68.02
	c-0.65-4.99-1.63-8.58-2.97-10.92c-4-7.34-11.04-11.07-20.92-11.07c-9.77,0-16.8,3.77-20.92,11.22c-1.35,2.47-2.32,5.99-2.98,10.99
	l0.02,111.26c-1.1,6.57-2.23,11.07-3.34,13.28c-4.84,8.71-12.6,12.95-23.71,12.95c-10.77,0-18.16-4.26-22.6-13.04
	c-0.57-1.15-0.96-1.98-1.15-2.51c-0.2-0.54-0.54-1.79-1.02-3.75c-0.49-1.95-0.89-4.36-1.18-6.95l0.28-69.84
	C1456.9,439.22,1455.92,436,1454.67,433.96"/>
<path d="M1765.06,579.2c1.38,0.69,3.18,1.23,5.49,1.67c2.22,0.42,4.64,0.79,7.4,1.11l14.29-0.02l8.49-1.42
	c6.86-1.93,12.37-5.21,16.38-9.76c3.99-4.53,6.71-10.71,8.11-18.46l0.61-4.6c0.22-1.54,0.32-2.73,0.32-3.63l-0.02-136.27
	c-0.95-6.25-1.95-10.55-3.07-13.26c-4.3-9.03-11.66-13.61-21.88-13.61c-10.44,0-17.86,4.64-22.08,13.87
	c-1.28,3.21-2.25,7.61-2.89,13.26l0.01,119.39l-0.28,3.27l-0.95,2.26c-0.91,0.72-1.77,1.18-2.56,1.4l-0.44,0.12l-0.09,0.09
	c-0.15,0.02-0.42,0.04-0.86,0.04l-0.39,0.04c-4.17,0.96-7.16,1.91-9.3,2.99c-6.26,3.91-9.44,10.83-9.44,20.56
	C1751.9,568.27,1756.33,575.32,1765.06,579.2"/>
<path d="M2003.71,517.83v-0.15l269.87,0.15l10-0.63l6.63-0.79l15.32-3.41c5.67-1.57,10.89-3.81,15.51-6.65
	c9.46-5.67,16.56-12.83,21.11-21.29l6.77-12.77l1.25-4.33l2-10.02c0.63-3.47,0.95-6.73,0.95-9.7c0-7.05-1.59-14.86-4.72-23.23
	c-4.93-13.22-11.99-22.92-21.02-28.87l-12.92-8l-6.78-2.46c-3.82-1.42-6.88-2.11-9.27-2.11h-0.01l-8.25-0.46
	c-6.7,0-14.69,1.37-23.73,4.07c-9.15,2.74-17.97,8.05-26.22,15.78c-7.68,7.05-12.87,14.74-15.41,22.84
	c-2.51,7.97-3.78,15.43-3.78,22.2l0.33,9.73l1.1,7.52l1.05,4.64l-223.11-0.15v0.15h-13.28l0-20.03l-0.77-15.95l-0.82-7.49
	l-2.84-10.84c-3.57-8.7-8.47-16.05-14.6-21.87c-9.42-8.48-21.4-14.21-35.57-17.03c-2.78-0.62-4.76-0.93-6.04-0.96
	c-0.75-0.15-2.28-0.31-6.34-0.31c-9.67,0-19.41,2.5-29.01,7.45c-6.86,3.85-13.03,8.33-18.44,13.43l-7.9,8.67
	c-2.12,2.54-3.98,5.34-5.52,8.32c-1.52,2.94-2.88,6.24-4.05,9.86l-1.21,5c-0.18,0.55-0.4,1.56-0.4,4.55c0,3.95,0.79,7.53,2.36,10.68
	c2.33,4.33,5.87,7.56,10.52,9.62c4.51,1.98,8.47,2.99,11.78,2.99c1.83,0,3.93-0.39,6.47-1.26c4.6-2.3,8.11-5.54,10.48-9.72
	l5.49-11.14c2.34-4.1,5-7.35,7.92-9.68c3.61-3.04,7.47-4.52,11.8-4.52c8.5,0,14.08,2.81,17.05,8.58c0.54,1.08,0.95,2.38,1.27,4.03
	c0.74,2.47,0.85,3.45,0.85,3.81l0.05,0.41c0.1,0.4,0.29,1.06,0.57,2l0.15,31.85l-62.83,0.02c-5.5,0.85-9.29,1.68-11.75,2.63
	c-7.99,3.99-12.04,10.89-12.04,20.49c0,10.01,4.1,17.15,12.12,21.21c2.58,1.46,6.41,2.49,11.94,3.15H2003.71z M2272.37,435.16
	c3.85-3.8,8.3-5.65,13.62-5.65c5.61,0,10.16,1.86,13.91,5.71c3.75,3.85,5.58,8.3,5.58,13.62c0,5.6-1.91,10.11-5.83,13.81
	c-3.96,3.72-8.43,5.53-13.65,5.53c-5.32,0-9.77-1.85-13.62-5.65c-3.85-3.79-5.71-8.27-5.71-13.68
	C2266.65,443.44,2268.52,438.96,2272.37,435.16"/>
<path style="fill:#FFFFFF;" d="M1356.23,463.94c-5.97-5.89-13.06-8.79-21.27-8.71c-8.21,0.08-15.18,3.07-20.9,8.95
	c-5.72,5.89-8.54,13.02-8.46,21.4c0.09,8.63,2.95,15.71,8.58,21.22c5.63,5.52,12.76,8.23,21.39,8.14c8.3-0.09,15.35-3.03,21.16-8.83
	c5.81-5.8,8.67-12.81,8.58-21.02C1365.23,476.88,1362.2,469.83,1356.23,463.94"/>
<path d="M665.87,710.77c0-12.2,4.77-22.86,14.3-31.98c9.53-9.11,20.4-13.67,32.6-13.67c9.03,0,17.01,2.01,23.95,6.02
	c6.94,4.01,12.66,9.87,17.18,17.56c3.67-6.69,8.99-12.16,15.93-16.43c6.94-4.26,14.25-6.65,21.95-7.15h1.13h1.38
	c15.72,0,27.72,5.23,35.99,15.68c8.28,10.45,12.42,23.03,12.42,37.75v117.63h-49.16V725.81v-1c-0.17-2.01-0.75-3.89-1.76-5.64
	c-1-1.76-2.68-2.64-5.02-2.64c-2.51,0-4.35,0.88-5.52,2.64c-1.17,1.76-1.92,3.72-2.26,5.89v0.88v0.88v109.36h-49.41V725.81v-1
	c-0.17-2.01-0.75-3.89-1.76-5.64c-1-1.76-2.68-2.64-5.02-2.64c-2.68,0-4.6,1-5.77,3.01c-1.17,2.01-1.76,4.18-1.76,6.52v110.11
	h-49.41V710.77z"/>
<path d="M993.68,779.15c0,16.91-5.52,31.36-16.55,43.33s-25.17,17.96-42.39,17.96c-17.39,0-32.06-5.82-44.02-17.46
	c-11.96-11.64-17.93-26.17-17.93-43.58V668.88h49.91v108.58c0,3.35,1,6.2,3.01,8.54c2.01,2.35,4.68,3.52,8.03,3.52
	c3.35,0,5.94-1.17,7.78-3.52c1.84-2.34,2.76-5.11,2.76-8.29V668.88h49.41V779.15z"/>
<path d="M1075.7,836.17h-50.16V668.88h74.74c4.85,0.17,9.7,0.5,14.55,1c4.85,0.5,9.61,1.59,14.3,3.26
	c15.88,5.7,29.3,15.66,40.25,29.89c10.95,14.23,16.43,29.98,16.43,47.22c0,25.12-8.24,45.85-24.7,62.18
	c-16.47,16.33-37.16,24.57-62.08,24.74h-3.89c-1.25,0-2.55-0.09-3.89-0.25c-1.34,0-2.63-0.04-3.89-0.13
	c-1.25-0.09-2.55-0.12-3.89-0.12v-49.16h12.79c10.36,0.17,19.48-2.72,27.34-8.65c7.86-5.93,11.79-14.51,11.79-25.71
	c0-9.69-3.47-17.81-10.41-24.33c-6.94-6.52-15.09-9.78-24.45-9.78l-24.83-0.25V836.17z"/>
<path d="M1273.09,796.29h-13.55v39.88h-50.41V728.32c0-18.89,5.6-34.15,16.81-45.77c11.2-11.62,26.42-17.43,45.65-17.43
	c17.89,0,32.23,6.27,43.01,18.81c10.79,12.54,16.18,27.42,16.18,44.64v107.6h-50.41V728.32v-1.26c-0.17-2.84-1.05-5.52-2.63-8.02
	c-1.59-2.51-3.98-3.85-7.15-4.01c-3.68,0-6.44,1.38-8.28,4.14c-1.84,2.76-2.76,5.89-2.76,9.41v23.83h13.55V796.29z"/>
<path d="M1412.04,836.17h-49.66V668.88h68.72c14.55,0.17,27.84,5.36,39.88,15.55c12.04,10.2,18.06,22.99,18.06,38.38
	c0,8.86-1.88,17.14-5.64,24.83c-3.76,7.69-9.24,14.3-16.43,19.82l28.84,68.72h-52.42l-24.08-53.93v-42.89
	c0.33,0.17,0.71,0.25,1.13,0.25h1.38c4.35-0.17,8.36-1.09,12.04-2.76c3.68-1.67,5.52-5.27,5.52-10.78c0-4.01-1.42-6.94-4.26-8.78
	c-2.85-1.84-6.02-2.84-9.53-3.01h-0.63h-0.63l-12.29-0.25V836.17z"/>
<path d="M1562.02,836.17h-49.66V668.88h68.72c14.55,0.17,27.84,5.36,39.88,15.55c12.04,10.2,18.06,22.99,18.06,38.38
	c0,8.86-1.88,17.14-5.64,24.83c-3.76,7.69-9.24,14.3-16.43,19.82l28.85,68.72h-52.42l-24.08-53.93v-42.89
	c0.33,0.17,0.71,0.25,1.13,0.25h1.38c4.35-0.17,8.36-1.09,12.04-2.76c3.68-1.67,5.52-5.27,5.52-10.78c0-4.01-1.42-6.94-4.26-8.78
	c-2.85-1.84-6.02-2.84-9.53-3.01h-0.63h-0.63l-12.29-0.25V836.17z"/>
<rect x="1662.6" y="668.88" width="50.41" height="167.29"/>
<path d="M1828.38,668.38v47.4c-1.34-0.33-2.72-0.71-4.14-1.13c-1.42-0.42-2.8-0.63-4.14-0.63c-3.85,0-7.11,1.47-9.78,4.4
	c-2.68,2.93-4.01,6.24-4.01,9.93c0,2.85,0.96,6.16,2.88,9.93c1.92,3.77,4.05,7.92,6.4,12.44c2.34,4.69,4.47,9.68,6.4,14.95
	c1.92,5.28,2.88,10.85,2.88,16.72c0,16.75-6.1,30.62-18.31,41.59c-12.21,10.97-26.5,16.46-42.89,16.46c-3.85,0-7.65-0.5-11.41-1.5
	c-3.76-1-7.4-2.26-10.91-3.76v-48.66c2.01,1.34,4.05,2.38,6.15,3.14c2.09,0.75,4.22,1.13,6.4,1.13h1h1c3.34-0.5,6.4-1.93,9.15-4.28
	c2.76-2.35,4.14-5.28,4.14-8.81c0-2.69-0.92-5.83-2.76-9.44c-1.84-3.61-3.93-7.68-6.27-12.21c-2.17-4.53-4.23-9.6-6.15-15.23
	c-1.92-5.62-2.88-11.71-2.88-18.25c0-15.48,5.56-28.92,16.68-40.33c11.12-11.4,24.54-17.11,40.26-17.11c3.51,0,6.98,0.3,10.41,0.88
	c3.42,0.59,6.73,1.46,9.91,2.63V668.38z"/>
<path style="fill:#FFFFFF;" d="M1858.48,810.59c0-7.53,2.76-14.25,8.28-20.19c5.52-5.94,12.12-8.91,19.81-8.91
	c8.19,0,15.26,2.85,21.19,8.53c5.93,5.69,8.9,12.63,8.9,20.82c0,8.03-2.93,14.8-8.78,20.32c-5.85,5.52-12.71,8.28-20.57,8.28
	c-7.86,0-14.63-2.8-20.32-8.4c-5.69-5.6-8.53-12.33-8.53-20.19V810.59z"/>
<path style="fill:#FFFFFF;" d="M1950.02,726.06c0-16.22,5.68-30.43,17.06-42.64c11.37-12.2,25.41-18.31,42.14-18.31
	c17.39,0,32.02,5.81,43.89,17.43c11.87,11.62,17.81,26.21,17.81,43.77v109.86h-49.91V727.82c0-3.17-0.96-5.89-2.89-8.15
	c-1.92-2.26-4.55-3.39-7.9-3.39c-3.35,0-5.98,1.17-7.9,3.51c-1.92,2.34-2.88,5.1-2.88,8.28v108.1h-49.41V726.06z"/>
<path style="fill:#FFFFFF;" d="M2195.57,771.46h-32.6c-0.17,0.17-0.3,0.25-0.38,0.25h-0.38c-2.84,0-5.48,0.46-7.9,1.38
	c-2.42,0.92-3.64,3.22-3.64,6.9c0,3.51,1.13,5.77,3.39,6.77c2.25,1,4.72,1.59,7.4,1.76h1.88h1.88h33.36v47.66h-40.88
	c-7.36,0-14.26-0.75-20.69-2.26c-6.44-1.5-12.58-4.85-18.43-10.03c-5.02-4.51-8.9-9.86-11.66-16.05
	c-2.76-6.18-4.14-12.62-4.14-19.31v-73.99c0-12.44,4.89-23.16,14.67-32.15c9.78-9,20.77-13.49,32.98-13.49l48.16-0.25v48.41h-33.36
	c-0.17,0.17-0.29,0.25-0.38,0.25h-0.38c-2.68,0-5.1,0.59-7.27,1.76c-2.18,1.17-3.26,3.35-3.26,6.52c0,2.92,1,4.95,3.01,6.09
	c2.01,1.14,4.18,1.87,6.52,2.19h1.38h1.38h29.34V771.46z"/>
<polygon style="fill:#FFFFFF;" points="2308.43,836.17 2258.52,836.17 2258.52,716.53 2220.4,716.53 2220.4,668.88 2353.12,668.88 
	2353.12,716.53 2308.43,716.53 "/>
<path style="fill:#FFFFFF;" d="M752.68,594.92c-18.35,0-33.22,14.87-33.22,33.22c0,18.34,14.87,33.22,33.22,33.22
	c18.34,0,33.22-14.87,33.22-33.22C785.9,609.8,771.03,594.92,752.68,594.92"/>
<path style="fill:#FFFFFF;" d="M665.92,677.73v-17.47c0-1.31-0.72-2.54-1.84-3.21v-12.92l51.63-0.68
	c-2.73-5.37-4.28-11.47-4.28-17.9c0-21.87,17.73-39.6,39.58-39.6c13.68,0,25.75,6.94,32.86,17.49l27.27-37.91l-98.45-4.73
	l-48.61,77.17l-3.84,6.11l-0.07,0.1h0.07v12.86c-1.11,0.67-1.84,1.89-1.84,3.21v17.47c0,2.06,1.69,3.77,3.75,3.77
	C664.23,681.5,665.92,679.8,665.92,677.73"/>
<rect y="1" style="fill:none;" width="2355.18" height="947.66"/>
</svg>
